<svg width="93" height="30" fill="none" xmlns="http://www.w3.org/2000/svg"><path d="M17.591.002c-1.303 0-2.083 1.018-2.083 2.468v11.117c0 1.423.762 2.455 2.065 2.455 1.304 0 2.075-1.032 2.075-2.455V2.47c0-1.45-.794-2.468-2.075-2.468m9.728 4.404h-.97v-.609c0-.686.398-.973 1.444-.854 1.114.104 1.353-.61 1.353-1.178a1.428 1.428 0 0 0-.451-1.063c-.73-.7-2.557-.7-2.557-.7a4.664 4.664 0 0 0-2.778.823c-1.114.872-1.02 2.468-1.02 2.468v1.113h-.175a1.419 1.419 0 0 0-1.072.377 1.44 1.44 0 0 0-.462 1.046c0 .963.902 1.404 1.615 1.404h.095v6.636a2.032 2.032 0 0 0 .552 1.55 2 2 0 0 0 1.513.618c1.393 0 1.94-.995 1.94-2.104v-6.7h.973c.537 0 1.606-.263 1.606-1.363s-.843-1.478-1.606-1.478m11.657-.354a1.909 1.909 0 0 0-1.556.763 4.315 4.315 0 0 0-2.48-.763c-4.217 0-6.084 3.181-6.084 6.281 0 3.3 2.255 5.854 6.084 5.854a4.557 4.557 0 0 0 2.476-.768 1.88 1.88 0 0 0 1.56.768c1.312 0 2.061-1.018 2.061-2.454V6.506c0-1.414-.749-2.468-2.061-2.468zm-6.007 6.122c0-2.627 1.263-3.095 2.115-3.095h.104c.978.077 1.745.732 1.745 3.209 0 2.477-.834 2.922-1.696 2.968h-.13c-.97 0-2.138-.455-2.138-3.082zM13.93 12.883c-.217-.65-3.698-10.663-3.87-11.136A2.222 2.222 0 0 0 9.27.634c-.698-.532-2.186-.5-2.186-.5s-1.47-.037-2.179.5a2.17 2.17 0 0 0-.775 1.113C3.954 2.202.472 12.233.229 12.883c-.244.65-.361 1.414 0 2.045a2.328 2.328 0 0 0 1.912 1.114c.443.028.881-.1 1.24-.364.36-.263.616-.644.726-1.077.325-1.086.496-1.613.496-1.613h4.961s.162.527.487 1.613c.111.431.367.81.723 1.073.357.263.793.393 1.234.368a2.206 2.206 0 0 0 1.908-1.114 2.402 2.402 0 0 0 0-2.045h.014zM5.54 9.547L7.084 4.47 8.63 9.547H5.54z" fill="#1756C2"/><path d="M87.575 28.095H.012V30h87.563a5.41 5.41 0 0 0 3.496-1.29 5.486 5.486 0 0 0 1.852-3.255 6.682 6.682 0 0 1-2.362 1.968c-.928.462-1.95.7-2.986.695" fill="#EFCF00"/><path d="M92.986 21.328v-1.527H5.441a5.427 5.427 0 0 0-3.816 1.608 5.512 5.512 0 0 0-1.596 3.846v1.564h87.545a5.39 5.39 0 0 0 3.827-1.598 5.476 5.476 0 0 0 1.585-3.857M58.93 3.915c-2.215 0-4.37 2.991-5.133 4.145a8.15 8.15 0 0 1 .212-1.122c.163-.764.303-1.818-.212-2.477a1.628 1.628 0 0 0-1.352-.546c-2.053 0-4.082 2.636-4.961 3.927.103-.377.225-.85.306-1.122.136-.632.402-1.623-.022-2.2a1.439 1.439 0 0 0-1.263-.514 7.002 7.002 0 0 0-2.084.455l-.216.1.199.118s.297.3.067 1.872a66.324 66.324 0 0 1-1.637 7.382 1.832 1.832 0 0 0 .095 1.577 1.742 1.742 0 0 0 1.443.577 4.479 4.479 0 0 0 1.732-.34l.13-.033-.103-.136s-.451-.7.144-2.04c2.052-4.596 3.712-6.428 4.172-6.741.112-.05.175-.114.252-.114a.073.073 0 0 1 .077.064c.05.023.058.136.05.24a57.547 57.547 0 0 1-1.268 6.05c-.09.41-.19.741-.243 1.018a1.9 1.9 0 0 0 .153 1.564 1.582 1.582 0 0 0 1.254.455 5.228 5.228 0 0 0 1.768-.35l.166-.069-.126-.113c0-.041-.45-.623.18-2.046 1.516-3.536 3.563-6.3 4.096-6.7a.589.589 0 0 1 .324-.145s.027 0 .059.05c.056.118.072.25.045.378 0 .072-.068.29-.117.618a89.786 89.786 0 0 0-1.137 5.513c-.176 1.05-.09 1.84.293 2.273a1.802 1.802 0 0 0 1.403.572 4.141 4.141 0 0 0 2.043-.677l.153-.104-.14-.096s-.74-.695-.374-2.759c.253-1.386.586-2.977.834-4.131.118-.582.194-1.064.262-1.328v-.1c.135-.636.334-1.818-.208-2.45a1.534 1.534 0 0 0-1.33-.527m12.965.155a2.065 2.065 0 0 0-1.488.513 4.52 4.52 0 0 0-2.278-.636c-.961 0-1.902.282-2.705.814a8.704 8.704 0 0 0-3.031 3.581c-1.867 3.664-.97 6.34-.505 6.995a1.998 1.998 0 0 0 1.804.827c1.154 0 2.706-.454 5.028-4.158-.09.623-.139 1.252-.149 1.881 0 2.018 1.412 2.232 1.994 2.232 1.506 0 2.034-.709 2.034-.732l.063-.077-.063-.077s-.7-.728-.248-4.482A21.077 21.077 0 0 1 74 4.647l.058-.096-.103-.068a6.03 6.03 0 0 0-2.066-.454l-.009.009zm-6.516 9.35c-.307 0-.451-.533-.451-1.087 0-.555.297-4.063 1.75-5.836a1.572 1.572 0 0 1 1.073-.555c.929 0 1.804 1.005 2.016 1.264a26.28 26.28 0 0 1-3.843 5.877.847.847 0 0 1-.545.345M83.43 3.915c-1.628 0-3.608 2.727-4.41 3.977a65.97 65.97 0 0 0 .49-2.086 1.626 1.626 0 0 0-.18-1.282 1.767 1.767 0 0 0-1.384-.486 7.27 7.27 0 0 0-2.084.422l-.162.069.144.122s.303.455.118 1.96c-.262 1.65-1.3 5.753-1.737 7.413a1.684 1.684 0 0 0 .09 1.504c.37.504 1.092.564 1.588.564a4.583 4.583 0 0 0 1.723-.341l.162-.032-.099-.136s-.401-.646.059-1.873c1.244-3.182 2.629-5 3.459-5.65a1.05 1.05 0 0 1 .577-.218c.45 0 .744.518.744.518l.068.127.103-.104a6.82 6.82 0 0 0 1.493-2.19c.194-.5.451-1.392.068-1.905a.903.903 0 0 0-.83-.373zm9.402 1.486a12.13 12.13 0 0 1-3.085.264h-.406c.068-.39.343-1.5.636-2.554a1.633 1.633 0 0 0-.1-1.491 1.613 1.613 0 0 0-1.352-.455 9.092 9.092 0 0 0-2.282.455l-.194.059.167.154c.505.523-.04 3.028-.275 3.96-.027.05-1.308 5-1.308 7.399 0 1.99 1.082 2.977 3.157 2.977a5.3 5.3 0 0 0 3.328-1.09 1.455 1.455 0 0 0 .5-1.442 2.35 2.35 0 0 0-.252-.713l-.068-.146-.121.114a3.99 3.99 0 0 1-1.3.713c-.268.095-.55.15-.834.164a1.105 1.105 0 0 1-.721-.3c-.478-.495-.172-2.272-.068-2.84.162-.91.555-2.582.64-3h1.804a2.1 2.1 0 0 0 1.607-.546A2.133 2.133 0 0 0 93 5.524v-.182l-.167.06z" fill="#D60F27"/></svg>