<svg width="64" height="30" fill="none" xmlns="http://www.w3.org/2000/svg"><path d="M64 0H0v30h64V0z" fill="#2E3192"/><path fill-rule="evenodd" clip-rule="evenodd" d="M60.216 18.096h1.78V2.409h-1.83l.05 15.687zm-11.615-7.682l-.942 1.49-.05-9.445h2.034v6.39l-.25.396-.792 1.169zM45.654 17.2l-.793 1.218h2.898l.842-1.368.793-1.19 8.765-13.45h-2.576l-5.94 9.245v-.646l-.25.35-.792 1.191-2.947 4.65zm-8.518-6.291l-4.478 6.786.045 1.119h1.513l2.92-4.446L44.86 2.46h-2.177l-5.547 8.45zm.002 7.905h-1.486l1.486-2.31 8.516-13.25.498-.795h.245v11.36l-.743 1.144L44.17 17.3V9.618l-5.868 9.196h-1.163zM26.937 4.3H22.16l1.041-1.841h18.42l-1.336 1.79h-3.147l-10.201.05zm-.001 6.759l-5.126 7.854h-1.236v-1.368l6.362-10.04.1-.146h-6.164l-.15-.6.743-1.291 5.47-.05h3.64l-3.64 5.64zm0 2.091l-3.686 5.764h2.993l.693-1.168 6.117-10.337h4.953l1.535-2.09-2.404.05-5.225.05-4.976 7.731zm-9.11 5.563h2.228V2.46h-2.327l.1 16.255zM9.657 9.518L3.64 18.713H1.982v-1.168L9.657 5.768l2.15-3.309h2.428l-.987 1.54-3.591 5.52zm.001 2.091l-.693 1.09h7.697V2.46h-1.141l-2.228 3.605-3.622 5.545h-.013zm3.59-.5l-.991.05 2.078-3.355h.398v3.305h-1.485zm36.146 6.937L59.05 3.009 59 18.096h-2.03V9.718l-5.32 8.7h-2.505l.25-.372zm9.159 6.499h1.24l-1.24-2.727-1.186 2.727h1.186zM.842 20.11h3.59c.53-.015 1.058.002 1.585.05.336.04.659.158.942.345.262.159.496.36.693.596.155.255.239.547.244.845.01.348-.113.686-.344.946a1.734 1.734 0 0 1-.906.645c.468.1.901.322 1.255.646.291.31.453.72.452 1.145a1.76 1.76 0 0 1-.298.946 2.64 2.64 0 0 1-.743.745 2.997 2.997 0 0 1-1.236.345c-.543.054-1.09.07-1.635.05H.851V20.11H.84zm3.59 1.254H2.698v1.691h1.734c.246-.035.494-.052.743-.05.264-.021.519-.107.742-.25a.81.81 0 0 0 .25-.595.792.792 0 0 0-.25-.546 1.102 1.102 0 0 0-.643-.25h-.842zm0 2.91H2.698v1.936h2.87c.243-.026.47-.13.648-.296a.773.773 0 0 0 .245-.645 1.012 1.012 0 0 0-.15-.55 1.65 1.65 0 0 0-.593-.345 6.14 6.14 0 0 0-1.286-.1zm5.47 3.204V20.11h6.638v1.254h-4.827v1.641h4.478v1.178h-4.478v1.99h4.98v1.241H9.902v.064zm11.958-6.114h-1.78v1.819h1.78a4.51 4.51 0 0 0 1.14-.1.833.833 0 0 0 .494-.3.674.674 0 0 0 .2-.546.82.82 0 0 0-.25-.595 1.26 1.26 0 0 0-.692-.277h-.892zm0 3.455a1.852 1.852 0 0 0-.544-.345 4.25 4.25 0 0 0-.905-.05h-.344v3.054h-1.834V20.11h3.84a7.418 7.418 0 0 1 2.078.195c.393.127.74.371.991.7.266.32.406.725.394 1.141a1.891 1.891 0 0 1-.593 1.391 3.067 3.067 0 0 1-1.734.646c.348.163.666.382.942.65.39.356.74.756 1.041 1.19l1.087 1.392h-2.2l-1.291-1.591a8.62 8.62 0 0 0-.942-1.019l.014.014zm4.93.25l1.78-.1c.074.418.304.791.643 1.046.389.235.836.355 1.29.345.448.032.896-.071 1.286-.296a.88.88 0 0 0 .453-.745.457.457 0 0 0-.2-.4 1.1 1.1 0 0 0-.642-.35l-1.436-.295a5.551 5.551 0 0 1-2.033-.746 1.742 1.742 0 0 1-.792-1.44 1.367 1.367 0 0 1 .399-1.046 1.949 1.949 0 0 1 1.086-.746 4.688 4.688 0 0 1 1.734-.3 4.393 4.393 0 0 1 2.55.65 1.843 1.843 0 0 1 .905 1.587l-1.784.05a1.287 1.287 0 0 0-.494-.796 2.328 2.328 0 0 0-1.14-.245 2.775 2.775 0 0 0-1.236.245.607.607 0 0 0-.3.5.456.456 0 0 0 .3.396c.199.2.792.35 1.634.5a9.26 9.26 0 0 1 1.929.545c.383.16.722.411.987.732a2.015 2.015 0 0 1-.05 2.336c-.316.37-.733.64-1.2.778a5.712 5.712 0 0 1-1.983.3 4.415 4.415 0 0 1-2.599-.65 2.788 2.788 0 0 1-1.087-1.887v.032zm12.352-3.223l-.05-.045-1.186 2.745h2.427l-1.19-2.727v.027zm0 3.955h-1.784l-.742 1.64h-1.88l3.5-7.358h1.88l3.59 7.359h-1.938l-.792-1.641h-1.834zm5.474 1.663V20.11h2.717l1.635 5 1.584-5h2.717v7.354h-1.635v-5.79l-1.784 5.79h-1.734l-1.734-5.79v5.79h-1.766zm14.942-7.354l3.581 7.354h-1.983l-.792-1.64h-3.518l-.743 1.64H54.17l3.49-7.354h1.898zm-51.19-6.264l8.272-.028v4.873h-1.956v-2.709H9.631l-1.657 2.732H5.076l3.147-4.846h.145v-.022z" fill="#fff"/></svg>