<svg width="102" height="30" fill="none" xmlns="http://www.w3.org/2000/svg"><path fill-rule="evenodd" clip-rule="evenodd" d="M0 10.454l8.58 10.91L0 28.535V10.454zm3.463 18.078l6.476-5.455 4.475 5.455H3.463zM0 4.59l2.258 2.86 9.217 11.609 2.99-2.4a37.26 37.26 0 0 1-4.146-6.205C7.06 4.018 9.366.022 9.366.022H0v4.569zm12.793 16.26l3.048-2.532s2.909 3.855 6.287 4.764c4.42 1.19 6.376-1.718 6.376-1.718v7.168h-9.71l2.187-1.905s-1.143.764-3.934-1.181c-1.653-1.15-4.254-4.596-4.254-4.596zM13.073 0s-.97 1.332-.28 4.59c.74 3.487 3.68 7.174 3.676 7.092 0 0 .19-3.664 2.326-5.81a8.42 8.42 0 0 1 4.557-2.507 8.387 8.387 0 0 1 5.152.653V.023L13.075 0z" fill="#F15A23"/><path fill-rule="evenodd" clip-rule="evenodd" d="M28.505 8.845s-2.877-2.482-5.383-2.482a4.95 4.95 0 0 0-3.444 1.393 5.014 5.014 0 0 0-1.524 3.407c0 2.937 1.405 4.573 2.81 5.987 2.023 2.036 4.484 4.227 7.523 2.463l.018-10.768z" fill="#F15A23"/><path fill-rule="evenodd" clip-rule="evenodd" d="M61.293.3h6.774s6.02 9.169 8.978 12.955a464.57 464.57 0 0 1 6.16 8.11V2.35c0-.818-2.145-2.05-2.145-2.05h7.835s-2.57 1.063-2.57 2.05V30s-2.465-1.364-5.265-4.646C77.898 21.683 66.74 6.846 66.74 6.846V26.06c0 .982 2.145 2.473 2.145 2.473h-7.592s2.082-1.5 2.082-2.473V2.35c0-.867-2.082-2.05-2.082-2.05zm31.99 0H102s-2.34 1.114-2.34 2.05v23.71c0 1.023 2.34 2.473 2.34 2.473h-8.716s2.19-1.482 2.19-2.473V2.35c0-.9-2.19-2.05-2.19-2.05zM35.64.3s2.26 1.134 2.26 2.05v23.71c0 1.009-2.258 2.473-2.258 2.473h12.916c.808 0 9.85-1.487 9.85-8.5 0-7.014-7.023-7.673-7.023-7.673a6.13 6.13 0 0 0 3.127-2.283 6.196 6.196 0 0 0 1.15-3.713c0-5.172-6.296-6.063-7.105-6.063H35.642zm6.86 11.596V3.07h5.248c.809 0 3.613.95 3.613 4.468 0 2.9-2.827 4.36-3.613 4.36h-5.247zm0 2.314h6.056c.809 0 5.573 1.245 5.573 5.404 0 4.237-4.764 5.741-5.572 5.741H42.5V14.21z" fill="#005E6A"/></svg>