<?xml version="1.0" encoding="UTF-8" standalone="no"?>
<svg
   xmlns:dc="http://purl.org/dc/elements/1.1/"
   xmlns:cc="http://creativecommons.org/ns#"
   xmlns:rdf="http://www.w3.org/1999/02/22-rdf-syntax-ns#"
   xmlns:svg="http://www.w3.org/2000/svg"
   xmlns="http://www.w3.org/2000/svg"
   viewBox="0 0 793.70667 1122.52"
   height="1122.52"
   width="793.70667"
   xml:space="preserve"
   id="svg2"
   version="1.1"><metadata
     id="metadata8"><rdf:RDF><cc:Work
         rdf:about=""><dc:format>image/svg+xml</dc:format><dc:type
           rdf:resource="http://purl.org/dc/dcmitype/StillImage" /></cc:Work></rdf:RDF></metadata><defs
     id="defs6"><clipPath
       id="clipPath18"
       clipPathUnits="userSpaceOnUse"><path
         id="path16"
         d="M 0,841.89 H 595.28 V 0 H 0 Z" /></clipPath></defs><g
     transform="matrix(1.3333333,0,0,-1.3333333,0,1122.52)"
     id="g10"><g
       id="g12"><g
         clip-path="url(#clipPath18)"
         id="g14"><g
           transform="translate(141.4702,491.1455)"
           id="g20"><path
             id="path22"
             style="fill:#009c54;fill-opacity:1;fill-rule:nonzero;stroke:none"
             d="m 0,0 c 0.235,1.874 0.133,3.106 -2.548,3.823 -2.678,0.686 -9.454,1.828 -19.34,1.828 -12.44,0 -32.194,-4.383 -38.975,-34.867 -6.762,-30.49 -4.919,-40.804 8.281,-49.734 13.118,-8.894 34.781,-3.495 35.925,-3.082 1.114,0.443 2.108,1.135 2.535,2.827 0.426,1.706 2.684,13.835 2.817,15.106 0.144,1.28 -0.566,2.411 -2.264,2.265 -1.695,-0.143 -9.313,-1.144 -16.088,-1.144 -6.773,0 -11.006,3.114 -10.455,9.761 0.582,6.629 1.982,15.535 3.108,20.743 1.143,5.229 4.943,16.811 12.564,17.097 7.619,0.27 16.238,-0.722 17.665,-0.99 1.4,-0.297 3.505,0 3.948,1.702 C -2.402,-12.985 -0.164,-1.26 0,0" /></g><g
           transform="translate(177.8828,475.0903)"
           id="g24"><path
             id="path26"
             style="fill:#009c54;fill-opacity:1;fill-rule:nonzero;stroke:none"
             d="m 0,0 c 0.168,0.955 -0.487,1.736 -1.457,1.736 h -19.54 c -0.969,0 -1.9,-0.781 -2.069,-1.736 l -11.458,-64.929 c -0.168,-0.955 0.487,-1.737 1.457,-1.737 h 19.553 c 0.969,0 1.9,0.782 2.069,1.737 z" /></g><g
           transform="translate(156.5283,484.9634)"
           id="g28"><path
             id="path30"
             style="fill:#009c54;fill-opacity:1;fill-rule:nonzero;stroke:none"
             d="m 0,0 c -0.169,-0.955 0.486,-1.736 1.456,-1.736 h 19.568 c 0.97,0 1.901,0.781 2.07,1.736 l 2.294,12.989 c 0.168,0.954 -0.487,1.736 -1.456,1.736 H 4.367 c -0.969,0 -1.901,-0.782 -2.07,-1.736 z" /></g><g
           transform="translate(274.4487,475.0903)"
           id="g32"><path
             id="path34"
             style="fill:#009c54;fill-opacity:1;fill-rule:nonzero;stroke:none"
             d="M 0,0 C 0.168,0.955 -0.488,1.736 -1.457,1.736 H -21.01 c -0.969,0 -1.901,-0.781 -2.069,-1.736 l -11.448,-64.929 c -0.168,-0.955 0.487,-1.737 1.457,-1.737 h 19.56 c 0.969,0 1.901,0.782 2.069,1.737 z" /></g><g
           transform="translate(319.416,497.6831)"
           id="g36"><path
             id="path38"
             style="fill:#009c54;fill-opacity:1;fill-rule:nonzero;stroke:none"
             d="m 0,0 c 0.194,1.103 -0.563,2.005 -1.683,2.005 h -19.011 c -1.119,0 -2.195,-0.902 -2.389,-2.005 l -15.396,-87.253 c -0.195,-1.103 0.562,-2.005 1.682,-2.005 h 19.021 c 1.12,0 2.195,0.902 2.389,2.005 z" /></g><g
           transform="translate(234.2358,476.8262)"
           id="g40"><path
             id="path42"
             style="fill:#009c54;fill-opacity:1;fill-rule:nonzero;stroke:none"
             d="m 0,0 h -15.297 l 2.318,12.927 c 0.271,1.508 -0.096,3.029 -1.827,2.74 l -18.098,-2.855 c -1.787,-0.587 -2.988,-1.22 -3.252,-2.723 0,0 -10.493,-59.058 -10.591,-59.662 -1.594,-9.305 1.056,-20.1 19.064,-20.1 10.089,0 15.878,1.24 15.878,1.24 1.25,0 2.441,1.002 2.646,2.23 l 1.951,11.058 c 0.212,1.227 -0.62,2.23 -1.872,2.23 h -11.311 c -1.243,0 -3.95,0.08 -3.433,2.878 0.359,1.987 5.672,33.048 5.672,33.048 h 15.66 c 1.309,0 2.587,1.072 2.802,2.358 l 1.695,12.25 C 2.235,-1.058 1.339,0 0,0" /></g><g
           transform="translate(253.124,484.9634)"
           id="g44"><path
             id="path46"
             style="fill:#009c54;fill-opacity:1;fill-rule:nonzero;stroke:none"
             d="m 0,0 c -0.168,-0.955 0.488,-1.736 1.457,-1.736 h 19.547 c 0.97,0 1.901,0.781 2.069,1.736 l 2.287,12.989 c 0.168,0.954 -0.487,1.736 -1.457,1.736 H 4.355 c -0.969,0 -1.9,-0.782 -2.068,-1.736 z" /></g><g
           transform="translate(356.8271,475.0903)"
           id="g48"><path
             id="path50"
             style="fill:#009c54;fill-opacity:1;fill-rule:nonzero;stroke:none"
             d="m 0,0 c 0.168,0.955 -0.487,1.736 -1.457,1.736 h -19.549 c -0.97,0 -1.9,-0.781 -2.069,-1.736 l -11.453,-64.929 c -0.169,-0.955 0.486,-1.737 1.456,-1.737 h 19.553 c 0.97,0 1.901,0.782 2.069,1.737 z" /></g><g
           transform="translate(335.5068,484.9634)"
           id="g52"><path
             id="path54"
             style="fill:#009c54;fill-opacity:1;fill-rule:nonzero;stroke:none"
             d="m 0,0 c -0.168,-0.955 0.487,-1.736 1.457,-1.736 h 19.547 c 0.97,0 1.9,0.781 2.068,1.736 l 2.29,12.989 c 0.168,0.954 -0.487,1.736 -1.457,1.736 H 4.353 c -0.97,0 -1.901,-0.782 -2.069,-1.736 z" /></g><g
           transform="translate(433.1943,456.6592)"
           id="g56"><path
             id="path58"
             style="fill:#009c54;fill-opacity:1;fill-rule:nonzero;stroke:none"
             d="m 0,0 c 0.31,9.388 -5.61,21.01 -22.395,21.01 h -13.082 c -3.747,0 -22.533,-0.474 -26.492,-23.829 -3.881,-23.005 -5.05,-27.936 -5.05,-27.936 h 0.3 l -2.714,-15.484 c -0.204,-1.116 0.531,-1.995 1.616,-1.995 h 18.52 c 1.089,0 2.142,0.879 2.339,1.995 l 2.729,15.484 h 0.292 c 0,0 2.338,14.754 3.708,22.694 l 0.602,3.418 c 1.077,5.806 3.589,7.518 6.122,7.518 h 7.192 c 2.113,0 4.354,-1.748 3.457,-6.071 -1.08,-5.43 -1.547,-8.936 -1.547,-8.936 l -6.018,-34.107 c -0.205,-1.116 0.555,-1.995 1.648,-1.995 h 18.495 c 1.089,0 2.138,0.879 2.351,1.995 L -1.08,-7.3 c 0.244,1.324 0.517,2.865 0.79,4.422 v 0.01 l 0.354,1.972 C 0.118,-0.579 0.083,-0.287 0,0" /></g><g
           transform="translate(470.3359,437.2681)"
           id="g60"><path
             id="path62"
             style="fill:#009c54;fill-opacity:1;fill-rule:nonzero;stroke:none"
             d="M 0,0 -0.348,-2.059 0.393,-1.05 C 0.268,-0.679 0.131,-0.336 0,0" /></g><g
           transform="translate(457.7871,496.9658)"
           id="g64"><path
             id="path66"
             style="fill:#009c54;fill-opacity:1;fill-rule:nonzero;stroke:none"
             d="M 0,0 -0.317,-1.834 3.136,2.722 C 1.659,2.65 0.264,1.462 0,0" /></g><g
           transform="translate(516.3779,477.0239)"
           id="g68"><path
             id="path70"
             style="fill:#009c54;fill-opacity:1;fill-rule:nonzero;stroke:none"
             d="m 0,0 h -21.596 c -1.548,0 -2.122,-0.543 -3.107,-1.977 -0.757,-1.088 -13.331,-17.138 -18.935,-24.27 l 8.138,46.189 c 0.085,0.545 0,1.063 -0.205,1.503 l -37.233,-82.861 -0.774,-4.464 c -0.278,-1.488 0.774,-2.719 2.279,-2.719 h 5.419 l 19.624,26.785 0.348,2.058 c 0.131,-0.336 0.268,-0.679 0.393,-1.05 l 17.068,23.317 -10.206,-41.751 c 1.277,-3.398 2.203,-5.939 2.362,-6.398 0.567,-1.686 1.128,-2.961 3.395,-2.961 h 21.177 c 1.833,0 1.962,1.547 1.123,2.961 -0.833,1.394 -14.817,32.621 -14.817,32.621 0,0 25.845,29.632 27.094,30.907 C 2.833,-0.833 1.835,0 0,0" /></g><g
           transform="translate(465.7549,411.1436)"
           id="g72"><path
             id="path74"
             style="fill:#efe92b;fill-opacity:1;fill-rule:nonzero;stroke:none"
             d="M 0,0 4.233,24.066 -15.391,-2.719 H -3.26 c 1.521,0 2.987,1.232 3.26,2.719" /></g><g
           transform="translate(470.7285,436.2178)"
           id="g76"><path
             id="path78"
             style="fill:#efe92b;fill-opacity:1;fill-rule:nonzero;stroke:none"
             d="M 0,0 C 1.858,-4.99 4.815,-12.866 6.862,-18.434 L 17.068,23.317 Z" /></g><g
           transform="translate(478.6016,499.688)"
           id="g80"><path
             id="path82"
             style="fill:#69bd51;fill-opacity:1;fill-rule:nonzero;stroke:none"
             d="m 0,0 h -17.542 -0.137 L -21.132,-4.556 -35.162,-84.08 2.071,-1.219 C 1.721,-0.486 0.947,0 0,0" /></g><g
           transform="translate(180.77,391.3809)"
           id="g84"><path
             id="path86"
             style="fill:#373535;fill-opacity:1;fill-rule:nonzero;stroke:none"
             d="m 0,0 c -0.556,-0.729 -1.464,-1.696 -2.724,-2.897 -1.278,-1.217 -2.149,-2.138 -2.63,-2.784 -0.479,-0.655 -3.895,-6.559 -10.235,-17.729 -5.377,-9.524 -8.654,-14.285 -9.82,-14.285 -1.006,0 -1.833,0.288 -2.473,0.856 -0.745,0.614 -1.021,1.414 -0.829,2.418 0.12,0.606 0.608,1.369 1.464,2.292 0.847,0.919 1.92,2.536 3.199,4.872 0.939,1.758 1.884,3.524 2.823,5.282 -1.89,1.828 -3.334,4.637 -4.327,8.431 -1.748,6.464 -2.366,11.016 -1.849,13.652 0.433,2.215 1.624,3.325 3.572,3.325 2.256,0 3.119,-1.311 2.604,-3.952 -0.05,-0.277 -0.179,-0.686 -0.376,-1.242 -0.197,-0.547 -0.333,-0.974 -0.394,-1.285 -0.313,-1.605 -0.069,-4.134 0.734,-7.578 0.828,-3.628 1.814,-5.714 2.948,-6.245 0.632,0.723 2.125,2.923 4.488,6.593 2.59,4.052 4.569,6.966 5.923,8.718 2.249,2.871 3.934,4.308 5.06,4.308 0.822,0 1.519,-0.255 2.069,-0.775 C -0.217,1.463 0.049,0.797 0,0" /></g><g
           transform="translate(190.9873,367.166)"
           id="g88"><path
             id="path90"
             style="fill:#373535;fill-opacity:1;fill-rule:nonzero;stroke:none"
             d="m 0,0 c 1.137,5.854 0.314,8.777 -2.461,8.777 -1.993,0 -3.731,-1.232 -5.233,-3.727 -1.114,-1.877 -1.901,-4 -2.359,-6.367 -0.991,-5.087 -0.006,-7.63 2.96,-7.63 1.915,0 3.551,1.051 4.899,3.15 C -1.167,-4.191 -0.438,-2.255 0,0 M 4.937,-0.118 C 4.261,-3.559 2.847,-6.5 0.681,-8.947 c -2.496,-2.791 -5.357,-4.187 -8.58,-4.187 -3.304,0 -5.582,1.143 -6.827,3.434 -1.145,2.031 -1.378,4.787 -0.702,8.264 0.674,3.441 2.149,6.691 4.433,9.752 2.655,3.634 5.541,5.453 8.657,5.453 0.984,0 2.113,-0.44 3.403,-1.319 C 4.773,9.887 6.068,5.699 4.937,-0.118" /></g><g
           transform="translate(219.9448,376.2314)"
           id="g92"><path
             id="path94"
             style="fill:#373535;fill-opacity:1;fill-rule:nonzero;stroke:none"
             d="m 0,0 c -0.222,-1.188 -0.72,-2.979 -1.461,-5.365 -0.741,-2.394 -1.235,-4.197 -1.476,-5.424 -0.207,-1.066 -0.468,-2.66 -0.784,-4.784 -0.33,-2.13 -0.581,-3.698 -0.783,-4.74 -0.172,-0.878 -0.988,-1.312 -2.453,-1.312 -1.506,0 -2.323,0.742 -2.428,2.231 -1.623,-0.96 -3.105,-1.43 -4.455,-1.43 -1.088,0 -2.279,0.294 -3.544,0.891 -1.278,0.589 -2.105,1.3 -2.514,2.149 -0.768,1.605 -0.817,4.185 -0.126,7.746 0.235,1.218 0.691,3.368 1.362,6.421 0.641,2.721 1.097,4.843 1.35,6.367 1.293,0.846 2.309,1.267 3.065,1.267 1.798,0 2.528,-0.905 2.177,-2.703 -0.118,-0.611 -0.385,-1.524 -0.784,-2.75 -0.412,-1.225 -0.679,-2.144 -0.794,-2.757 l -1.575,-8.078 c -0.176,-0.921 -0.117,-1.881 0.175,-2.874 0.379,-1.152 0.983,-1.724 1.805,-1.724 1.618,0 3.018,1.056 4.224,3.16 0.804,1.447 1.412,3.208 1.814,5.271 l 1.333,6.892 c 0.17,0.871 0.159,1.965 -0.035,3.267 1.098,0.885 2.094,1.317 2.96,1.317 0.896,0 1.656,-0.288 2.282,-0.863 C -0.051,1.605 0.176,0.879 0,0" /></g><g
           transform="translate(238.7759,375.4824)"
           id="g96"><path
             id="path98"
             style="fill:#373535;fill-opacity:1;fill-rule:nonzero;stroke:none"
             d="m 0,0 c -0.046,-0.266 -0.164,-0.687 -0.354,-1.263 -1.011,-1.14 -1.951,-1.716 -2.806,-1.716 -0.722,0 -1.272,0.417 -1.672,1.259 0.259,1.72 -0.174,2.58 -1.306,2.58 -0.666,0 -1.852,-1.816 -3.531,-5.445 -0.763,-1.609 -1.432,-3.85 -1.977,-6.722 -0.535,-2.709 -0.722,-4.359 -0.568,-4.923 0.156,-0.731 0.21,-1.228 0.156,-1.499 -0.13,-0.65 -0.523,-1.174 -1.175,-1.567 -0.658,-0.408 -1.355,-0.607 -2.067,-0.607 -2.023,0 -2.85,0.958 -2.479,2.868 0.036,0.192 0.134,0.454 0.293,0.805 0.163,0.337 0.261,0.586 0.294,0.742 0.379,1.956 0.847,4.851 1.403,8.696 0.558,3.835 1.022,6.715 1.401,8.627 0.325,1.724 1.516,2.585 3.541,2.585 1.194,0 1.957,-0.363 2.261,-1.091 1.283,1.184 2.581,1.777 3.903,1.777 0.896,0 1.712,-0.245 2.437,-0.745 0.51,-0.304 1.033,-0.962 1.593,-1.982 C -0.108,1.369 0.115,0.572 0,0" /></g><g
           transform="translate(276.9038,382.4258)"
           id="g100"><path
             id="path102"
             style="fill:#373535;fill-opacity:1;fill-rule:nonzero;stroke:none"
             d="m 0,0 c 0.483,2.441 -0.388,4.304 -2.577,5.563 -1.749,1.037 -3.943,1.55 -6.57,1.55 -0.333,0 -1.157,-0.055 -2.461,-0.172 -0.23,-1.378 -1.048,-3.741 -2.45,-7.111 -0.802,-2.026 -1.662,-4.99 -2.568,-8.895 2.022,-0.765 3.305,-1.145 3.83,-1.145 0.45,0 1.129,0.129 2.05,0.398 2.618,0.768 4.874,1.938 6.761,3.503 C -1.803,-4.515 -0.467,-2.41 0,0 m 2.718,-25.696 -0.059,-0.292 c -0.727,-0.84 -1.5,-1.263 -2.324,-1.263 -0.644,0 -1.13,0.286 -1.465,0.862 -0.072,1.369 -2.128,3.611 -6.161,6.707 -4.038,3.105 -6.8,4.651 -8.299,4.651 h -1.019 c -0.528,-0.04 -0.889,-0.052 -1.078,-0.052 l -0.436,-2.24 c -0.151,-0.768 -0.251,-1.778 -0.309,-3.045 -0.113,-1.532 -0.087,-2.468 0.069,-2.806 0.499,-0.923 0.73,-1.499 0.682,-1.72 -0.131,-0.694 -0.505,-1.262 -1.11,-1.698 -0.617,-0.441 -1.262,-0.659 -1.936,-0.659 -1.422,0 -2.432,0.517 -3.023,1.555 -0.569,0.913 -0.213,4.698 1.083,11.359 -0.789,0 -1.562,0.24 -2.33,0.736 -0.858,0.612 -1.227,1.268 -1.084,1.955 0.267,1.417 1.729,2.432 4.359,3.036 0.379,1.19 0.826,2.814 1.336,4.883 0.538,2.331 0.945,3.961 1.232,4.873 0.463,1.222 1.107,3.062 1.92,5.513 h -0.453 c -1.508,-0.041 -2.125,0.62 -1.867,2.004 0.239,1.187 0.833,1.931 1.798,2.237 0.668,0.192 1.347,0.378 2.023,0.576 0.879,0.688 1.557,1.133 2.033,1.341 0.471,0.216 1.181,0.324 2.117,0.324 0.674,0 0.956,-0.314 0.84,-0.923 -0.037,-0.187 0.41,-0.288 1.35,-0.288 4.397,0 7.951,-0.897 10.68,-2.691 3.37,-2.181 4.653,-5.334 3.854,-9.468 -0.62,-3.167 -2.105,-5.795 -4.458,-7.859 -1.595,-1.417 -4.232,-3.003 -7.91,-4.766 2.328,-1.719 4.64,-3.437 6.94,-5.163 2.581,-2.33 3.579,-4.887 3.005,-7.679" /></g><g
           transform="translate(296.1592,385.8711)"
           id="g104"><path
             id="path106"
             style="fill:#373535;fill-opacity:1;fill-rule:nonzero;stroke:none"
             d="m 0,0 c -0.165,-0.843 -0.582,-1.537 -1.247,-2.068 -0.669,-0.541 -1.414,-0.798 -2.239,-0.798 -0.983,0 -1.821,0.34 -2.532,1.026 -0.717,0.694 -0.973,1.536 -0.781,2.527 0.167,0.843 0.587,1.526 1.28,2.063 0.687,0.541 1.457,0.803 2.323,0.803 1.008,0 1.846,-0.334 2.505,-1.004 C -0.031,1.877 0.197,1.032 0,0 m -2.069,-8.034 c -0.133,-0.69 -0.476,-1.657 -1.017,-2.925 -0.548,-1.268 -0.891,-2.238 -1.026,-2.933 L -6.407,-25.7 c -0.136,-0.738 -0.159,-1.877 -0.054,-3.442 -0.727,-0.886 -1.436,-1.322 -2.106,-1.322 -2.37,0 -3.427,1.198 -3.192,3.616 0.492,4.468 0.966,7.833 1.404,10.094 0.734,3.789 1.498,6.958 2.304,9.524 0.036,0.197 0.072,0.388 0.107,0.575 0.144,0.686 0.73,1.032 1.765,1.032 0.937,0 1.828,-0.194 2.679,-0.572 1.108,-0.429 1.584,-1.035 1.431,-1.839" /></g><g
           transform="translate(308.4307,369.3535)"
           id="g108"><path
             id="path110"
             style="fill:#373535;fill-opacity:1;fill-rule:nonzero;stroke:none"
             d="m 0,0 c 0.116,0.568 -0.058,1.044 -0.506,1.427 0.454,3.524 -0.404,5.274 -2.58,5.274 -1.24,0 -2.626,-1.775 -4.14,-5.334 -1.123,-2.709 -1.878,-5.064 -2.265,-7.054 -0.735,-3.747 -0.136,-5.624 1.776,-5.624 1.802,0 3.52,1.496 5.15,4.48 C -1.288,-4.546 -0.439,-2.265 0,0 M 6.356,3.431 C 6.098,2.481 5.521,0.799 4.644,-1.611 3.857,-3.72 3.348,-5.394 3.103,-6.661 2.883,-7.81 2.595,-9.537 2.267,-11.821 c -0.336,-2.298 -0.61,-4.017 -0.836,-5.172 -0.456,-2.362 -1.033,-4.131 -1.701,-5.278 -0.812,-1.448 -2.038,-2.626 -3.67,-3.522 -1.641,-0.904 -3.248,-1.351 -4.824,-1.351 -1.656,0 -3.616,0.465 -5.871,1.378 -2.717,1.07 -3.951,2.258 -3.7,3.561 0.325,1.684 1.262,2.521 2.793,2.521 0.712,0 1.158,-0.207 1.344,-0.631 0.339,-0.77 0.579,-1.227 0.723,-1.373 0.138,-0.156 0.717,-0.341 1.723,-0.554 1.011,-0.205 1.721,-0.314 2.13,-0.314 3.382,0 5.493,2.167 6.34,6.482 0.233,1.262 0.387,2.337 0.449,3.222 -1.894,-1.424 -3.963,-2.122 -6.213,-2.122 -0.939,0 -1.94,0.254 -2.998,0.795 -1.06,0.535 -1.823,1.169 -2.282,1.896 -0.896,1.377 -1.085,3.418 -0.543,6.137 0.62,3.25 2.052,6.831 4.272,10.726 2.735,4.78 5.39,7.171 7.984,7.171 1.576,0 2.934,-0.742 4.075,-2.233 C 2.236,8.104 3.016,6.701 3.794,5.332 4.023,4.951 4.43,4.597 5.001,4.291 5.714,3.918 6.162,3.622 6.356,3.431" /></g><g
           transform="translate(332.6436,354.832)"
           id="g112"><path
             id="path114"
             style="fill:#373535;fill-opacity:1;fill-rule:nonzero;stroke:none"
             d="m 0,0 c -0.852,-0.729 -1.868,-1.095 -3.025,-1.095 -0.796,0 -1.508,0.498 -2.138,1.497 0.661,3.361 1.157,5.969 1.516,7.805 1.652,8.482 1.277,12.731 -1.124,12.731 -2.477,0 -4.389,-3.425 -5.714,-10.269 -0.077,-0.372 -0.176,-0.94 -0.326,-1.664 -0.143,-0.724 -0.243,-1.279 -0.324,-1.667 -0.111,-0.568 -0.18,-1.442 -0.225,-2.605 -0.04,-1.171 -0.115,-2.033 -0.222,-2.605 -0.102,-0.508 -0.476,-0.951 -1.137,-1.35 -0.657,-0.409 -1.232,-0.612 -1.723,-0.612 -0.938,0 -1.663,0.395 -2.16,1.188 -0.513,0.778 -0.673,1.647 -0.48,2.601 l 6.667,33.162 c 0.021,0.116 0.055,0.268 0.088,0.454 0.041,0.196 0.067,0.33 0.084,0.407 0.26,1.383 1.153,2.066 2.65,2.066 0.714,0 1.475,-0.336 2.288,-1 0.807,-0.668 1.141,-1.35 1.004,-2.041 -0.158,-0.846 -0.587,-2.082 -1.257,-3.729 -0.684,-1.65 -1.094,-2.886 -1.26,-3.73 -0.205,-1.07 -0.502,-2.777 -0.875,-5.106 0.92,0.5 1.659,0.746 2.22,0.746 1.467,0 2.991,-0.365 4.581,-1.086 2.025,-0.963 3.267,-2.51 3.711,-4.651 0.324,-1.605 0.217,-3.822 -0.334,-6.655 z" /></g><g
           transform="translate(350.9482,376.2832)"
           id="g116"><path
             id="path118"
             style="fill:#373535;fill-opacity:1;fill-rule:nonzero;stroke:none"
             d="M 0,0 C -0.198,-1.029 -1.896,-1.757 -5.096,-2.174 -5.34,-3.012 -5.74,-4.932 -6.325,-7.914 l -0.74,-3.789 c -0.146,-0.762 -0.241,-1.888 -0.289,-3.377 -0.043,-1.493 -0.137,-2.608 -0.284,-3.332 -0.118,-0.614 -0.523,-1.151 -1.217,-1.635 -0.691,-0.479 -1.342,-0.716 -1.939,-0.716 -0.944,0 -1.568,0.824 -1.89,2.464 -0.238,1.268 -0.245,2.486 -0.016,3.676 l 2.37,12.155 c -1.682,0.27 -2.64,0.442 -2.885,0.523 -0.917,0.31 -1.321,0.746 -1.215,1.314 0.034,0.155 0.108,0.332 0.218,0.527 1.248,1.408 2.474,2.116 3.673,2.116 h 0.342 c 0.141,-0.033 0.251,-0.057 0.328,-0.057 0.781,0 1.342,0.938 1.678,2.815 l 0.806,4.178 c -0.143,0.43 -0.184,0.789 -0.125,1.1 0.092,0.498 0.478,0.935 1.133,1.34 0.666,0.408 1.255,0.605 1.777,0.605 0.794,0 1.462,-0.375 2.037,-1.115 0.568,-0.741 0.776,-1.535 0.612,-2.386 C -2.134,7.578 -2.444,6.67 -2.903,5.775 -3.357,4.869 -3.662,3.946 -3.81,2.986 L -3.855,2.758 C -0.987,2.451 0.297,1.532 0,0" /></g><g
           transform="translate(381.5391,357.2402)"
           id="g120"><path
             id="path122"
             style="fill:#373535;fill-opacity:1;fill-rule:nonzero;stroke:none"
             d="m 0,0 c -4.345,-1.483 -8.767,-2.242 -13.273,-2.242 -3.53,0 -5.762,1.267 -6.691,3.789 -0.714,1.952 -0.694,4.861 0.052,8.725 0.437,2.25 1.266,5.6 2.493,10.034 1.213,4.438 2.049,7.788 2.481,10.038 0.086,0.428 0.182,1.096 0.282,2.013 0.101,0.923 0.205,1.606 0.292,2.068 0.091,0.465 0.219,0.974 0.404,1.547 0.932,0.919 1.947,1.378 3.032,1.378 1.05,0 1.726,-0.689 2.023,-2.064 0.24,-1.072 0.24,-2.225 0.006,-3.441 -0.508,-2.603 -1.501,-6.468 -2.987,-11.587 -1.482,-5.129 -2.476,-8.978 -2.966,-11.539 -0.889,-4.517 -0.07,-6.766 2.45,-6.766 1.124,0 2.823,0.391 5.069,1.177 2.262,0.781 3.946,1.174 5.07,1.174 1.06,0 1.767,-0.484 2.155,-1.432 C 0.185,2.104 0.224,1.148 0,0" /></g><g
           transform="translate(397.5791,385.8711)"
           id="g124"><path
             id="path126"
             style="fill:#373535;fill-opacity:1;fill-rule:nonzero;stroke:none"
             d="m 0,0 c -0.166,-0.843 -0.575,-1.537 -1.243,-2.068 -0.669,-0.541 -1.414,-0.798 -2.241,-0.798 -0.975,0 -1.818,0.34 -2.529,1.026 -0.714,0.694 -0.972,1.536 -0.777,2.527 0.155,0.843 0.589,1.526 1.267,2.063 0.69,0.541 1.47,0.803 2.337,0.803 1.01,0 1.846,-0.334 2.498,-1.004 C -0.031,1.877 0.199,1.032 0,0 m -2.06,-8.034 c -0.14,-0.69 -0.479,-1.657 -1.026,-2.925 -0.55,-1.268 -0.886,-2.238 -1.025,-2.933 L -6.404,-25.7 c -0.14,-0.738 -0.152,-1.877 -0.048,-3.442 -0.738,-0.886 -1.438,-1.322 -2.118,-1.322 -2.368,0 -3.424,1.198 -3.183,3.616 0.495,4.468 0.96,7.833 1.398,10.094 0.745,3.789 1.507,6.958 2.306,9.524 0.037,0.197 0.08,0.388 0.113,0.575 0.136,0.686 0.72,1.032 1.761,1.032 0.926,0 1.82,-0.194 2.686,-0.572 1.103,-0.429 1.577,-1.035 1.429,-1.839" /></g><g
           transform="translate(414.5586,356.1475)"
           id="g128"><path
             id="path130"
             style="fill:#373535;fill-opacity:1;fill-rule:nonzero;stroke:none"
             d="m 0,0 c -0.739,-0.878 -1.513,-1.315 -2.34,-1.315 -0.639,0 -1.616,0.389 -2.94,1.145 l 0.138,0.687 c 0.166,0.837 0.436,2.087 0.813,3.728 0.373,1.653 0.637,2.854 0.782,3.621 1.593,8.184 1.189,12.27 -1.213,12.27 -0.678,0 -1.546,-0.535 -2.626,-1.598 -3.296,-3.297 -5.409,-7.256 -6.302,-11.883 -0.131,-0.645 -0.191,-1.609 -0.196,-2.895 0,-1.28 -0.068,-2.239 -0.199,-2.896 -0.101,-0.541 -0.429,-0.974 -0.991,-1.32 -0.551,-0.343 -1.112,-0.517 -1.673,-0.517 -2.247,0 -3.103,1.455 -2.532,4.364 l 2.328,11.983 c 0.06,0.314 0.186,0.757 0.38,1.35 0.182,0.591 0.313,1.044 0.371,1.348 0.092,0.466 0.147,1.134 0.197,2.012 0.029,0.879 0.094,1.524 0.179,1.945 0.115,0.617 0.582,1.203 1.381,1.75 0.802,0.561 1.484,0.83 2.047,0.83 0.829,0 1.578,-0.471 2.258,-1.422 l -0.62,-2.3 c 1.829,2.258 3.766,3.384 5.784,3.384 1.315,0 2.616,-0.457 3.897,-1.377 C 0.211,21.975 1.088,20.946 1.536,19.796 2.513,16.888 2.534,13.063 1.613,8.32 Z" /></g><g
           transform="translate(440.1484,353.9736)"
           id="g132"><path
             id="path134"
             style="fill:#373535;fill-opacity:1;fill-rule:nonzero;stroke:none"
             d="m 0,0 c -1.635,-1.072 -2.866,-1.613 -3.689,-1.613 -1.091,0 -2.446,1.155 -4.064,3.447 -1.146,1.599 -2.281,3.23 -3.391,4.88 -0.629,0.986 -1.673,2.387 -3.123,4.186 l -0.195,-0.118 -0.982,-5.046 c -0.059,-0.306 -0.024,-0.757 0.107,-1.343 0.126,-0.598 0.159,-1.069 0.093,-1.407 -0.104,-0.541 -0.464,-1.007 -1.09,-1.408 -0.62,-0.404 -1.208,-0.603 -1.778,-0.603 -0.973,0 -1.717,0.321 -2.229,0.97 -0.516,0.652 -0.673,1.473 -0.481,2.47 l 1.472,7.57 c 0.087,0.46 0.278,1.16 0.582,2.099 0.287,0.932 0.478,1.637 0.571,2.095 l 3.001,15.425 c 0.448,2.34 0.655,4.212 0.62,5.625 -0.006,0.65 0.019,1.156 0.079,1.492 0.147,0.725 0.705,1.381 1.68,1.949 0.846,0.541 1.659,0.809 2.414,0.809 0.56,0 1.127,-0.229 1.701,-0.662 0.563,-0.446 0.803,-0.933 0.698,-1.464 -0.033,-0.156 -0.259,-0.687 -0.678,-1.603 -0.422,-0.921 -0.81,-2.34 -1.186,-4.252 -0.114,-0.609 -1.167,-5.718 -3.156,-15.315 0.188,0.155 2.586,2.045 7.212,5.68 3.832,3.065 6.036,4.589 6.602,4.589 1.997,0 2.725,-1.244 2.161,-3.726 L 2.839,24.148 C 1.03,23.188 -1.358,21.679 -4.33,19.611 -8.067,17.046 -10.018,15.352 -10.186,14.514 -10.202,14.429 -9.42,13.233 -7.84,10.9 -6.349,8.671 -5.402,7.305 -5.018,6.766 -3.228,4.355 -1.438,2.715 0.36,1.834 Z" /></g></g></g></g></svg>