<svg width="110" height="32" fill="none" xmlns="http://www.w3.org/2000/svg"><path fill-rule="evenodd" clip-rule="evenodd" d="M14.47.058C9.18.558 4.89 3.36 2.287 7.685c-1.692 2.81-2.488 6.14-2.242 9.556.6 8.359 7.783 15.436 16.977 14.707 8.25-.654 15.056-8.075 14.36-17.202-.256-3.342-1.418-6.096-3.28-8.583-.842-1.126-1.009-1.144-1.889-2.066-1.092-1.143-3.4-2.456-4.873-3.037C19.363.281 16.848-.167 14.47.058z" fill="#108DE8"/><path fill-rule="evenodd" clip-rule="evenodd" d="M6.614 11.337c-.201.58-.082 7.02-.082 8.215 0 1.292-.255 1.696 1.767 2.387 5.354 1.831 10.655-4.377 15.978-1.305.247.142.548.434.618-.038l.002-8.285c0-.891.08-1.17-.51-1.582-4.765-3.319-9.922 2.358-14.756 1.721-1.789-.236-2.53-1.148-3.017-1.113z" fill="#fff"/><path fill-rule="evenodd" clip-rule="evenodd" d="M43.394 24.11c2.087.149 4.518-1.47 5.374-2.396 2.975-3.22 3.047-7.879.052-11.25-1.115-1.256-3.726-2.644-5.392-2.45l-6.014.005-.002 16.07 5.982.02zm-2.603-3.482c.443.077 2.262.048 2.762.002 4.11-.376 5.56-5.993 2.106-8.347-.573-.39-1.211-.702-2.048-.795-.459-.051-2.417-.083-2.822-.01l.002 9.15zm55.282 3.512l3.42-.002.004-3.463h6.789l.02 3.464h3.419c.003-1.924.001-3.834.001-5.743 0-1.72.145-3.873-.279-5.433-.718-2.64-3.229-4.982-6.533-4.995-3.34-.013-5.764 2.322-6.538 4.924-.459 1.54-.306 3.748-.306 5.443 0 1.932-.02 3.874.003 5.805zm3.424-6.95l6.806.003c.016-1.486.176-2.93-.491-4.068-.477-.814-1.483-1.666-2.896-1.672-1.442-.006-2.404.812-2.918 1.655-.674 1.107-.522 2.63-.5 4.082zm-42.555 6.946l3.41.003c.002-.723-.092-2.939.033-3.464h6.762l.024 3.462 3.414.003c-.017-1.92-.001-3.835-.001-5.744 0-1.637.152-3.983-.278-5.435-1.953-6.61-11.05-6.657-13.068-.066-.457 1.493-.301 3.777-.301 5.44 0 1.919-.044 3.89.005 5.801zm3.412-6.946l6.814.003c.014-1.464.174-2.935-.494-4.071-1.223-2.08-4.334-2.379-5.814-.01-.676 1.082-.529 2.652-.506 4.078zm16.233-2.898l-.047 2.4c0 2.013-.1 5.768.008 7.4l3.343.003c.078-1.145-.12-9.313.091-9.573.001-1.588 1.656-3.064 3.33-3.07 1.028-.004 1.778.415 2.323.911.426.388 1.078 1.272 1.066 2.167.156.088.032 8.608.082 9.562l3.347.003-.027-9.754c.084-.765-.377-1.946-.672-2.546-2.477-5.036-9.59-5.103-12.138-.087-.298.589-.777 1.802-.706 2.584z" fill="#108DE8"/><path fill-rule="evenodd" clip-rule="evenodd" d="M43.393 24.11l-5.982-.02.002-16.071 6.014-.004c-.11-.154-2.618-.062-2.97-.062-.875 0-2.257-.082-3.07.013-.077.256-.108 15.762-.005 16.18.554.071 4.413.016 5.633.02l.336-.036c.01-.003.028-.013.042-.02zM86.7 14.53c.036 1.314-.071 9.148.051 9.618l3.408.015c.09-.377.034-6.485.034-7.41 0-.442.119-2.179-.09-2.413l.026 9.754-3.347-.002c-.05-.954.074-9.474-.082-9.562zm-6.718-.009c-.212.26-.014 8.429-.091 9.573l-3.344-.001c-.107-1.633-.007-5.388-.007-7.4l.047-2.402c-.19.083-.106 4.362-.106 4.896 0 .777-.092 4.517.041 4.962l3.406.013.054-9.64z" fill="#79BBE7"/></svg>