<?xml version="1.0" encoding="UTF-8"?>
<!DOCTYPE svg PUBLIC "-//W3C//DTD SVG 1.1//EN" "http://www.w3.org/Graphics/SVG/1.1/DTD/svg11.dtd">
<!-- Creator: CorelDRAW X7 -->
<svg xmlns="http://www.w3.org/2000/svg" xml:space="preserve" width="3000px" height="3000px" version="1.1" style="shape-rendering:geometricPrecision; text-rendering:geometricPrecision; image-rendering:optimizeQuality; fill-rule:evenodd; clip-rule:evenodd"
viewBox="0 0 3000 3000"
 xmlns:xlink="http://www.w3.org/1999/xlink">
 <defs>
  <style type="text/css">
   <![CDATA[
    .fil4 {fill:none}
    .fil1 {fill:#535150}
    .fil2 {fill:#008BA0}
    .fil3 {fill:#014A8A}
    .fil0 {fill:#535150;fill-rule:nonzero}
   ]]>
  </style>
 </defs>
 <g id="Layer_x0020_1">
  <metadata id="CorelCorpID_0Corel-Layer"/>
  <g id="_1977170221776">
   <path class="fil0" d="M1423 2272l0 -2 -5 0c-2,0 -2,-1 -2,-2 0,-1 0,-2 2,-2l5 0 0 -3 -5 0c-2,0 -2,0 -2,-2 0,-1 0,-1 2,-1l5 0 0 -3 -6 0c-3,0 -4,1 -4,3 0,2 1,3 2,4 -1,0 -2,1 -2,3 0,1 1,2 2,3l-2 0 0 2 10 0zm1 -20c0,-2 -1,-3 -2,-4l1 0 0 -2 -5 0c-2,0 -3,0 -4,1 0,0 -1,2 -1,3 0,2 1,3 1,4l2 -1c0,-1 0,-1 0,-2 0,-2 0,-3 2,-3l0 0c-1,1 -1,2 -1,3 0,2 1,4 4,4l0 0c2,0 3,-2 3,-3zm-2 -1c0,1 -1,1 -2,1l0 0c-1,0 -1,-1 -1,-2 0,0 0,-1 0,-2l1 0c1,0 2,1 2,3zm1 -8l0 -3 -5 0c-2,0 -2,0 -2,-2 0,-1 0,-1 2,-1l5 0 0 -3 -6 0c-2,0 -4,1 -4,3 0,2 1,3 2,3l-2 0 0 3 10 0zm1 -15c0,-2 -1,-2 -2,-3l1 0 0 -3 -10 0 0 3 6 0c1,0 2,1 2,2 0,1 -1,2 -2,2l-6 0 0 2 7 0c2,0 4,-1 4,-3zm0 -11c0,-2 -1,-3 -2,-3l1 0 0 -3 -5 0c-2,0 -3,0 -4,1 0,1 -1,2 -1,3 0,2 1,3 1,4l2 0c0,-1 0,-2 0,-3 0,-2 0,-2 2,-2l0 0c-1,0 -1,1 -1,2 0,2 1,4 4,4l0 0c2,0 3,-1 3,-3zm-2 -1c0,1 -1,1 -2,1l0 0c-1,0 -1,0 -1,-2 0,0 0,-1 0,-2l1 0c1,0 2,1 2,3zm1 -8l0 -3 -13 0 0 3 13 0zm1 -15c0,-1 -1,-1 -1,-2l-2 0c0,1 0,1 0,2 0,0 0,0 -1,0l-4 0 0 -2 -3 0 0 2 -2 0 0 3 2 0 0 2 3 0 0 -2 5 0c2,0 3,-1 3,-3zm-1 -4l0 -3 -3 0c-3,0 -4,-1 -4,-3l0 0 -3 0c0,2 1,3 2,3l-2 0 0 3 10 0zm1 -10c0,-2 -1,-3 -2,-3l1 0 0 -3 -5 0c-2,0 -3,0 -4,1 0,1 -1,2 -1,3 0,2 1,3 1,4l2 0c0,-1 0,-2 0,-3 0,-2 0,-2 2,-2l0 0c-1,0 -1,1 -1,2 0,2 1,4 4,4l0 0c2,0 3,-1 3,-3zm-2 -1c0,1 -1,1 -2,1l0 0c-1,0 -1,0 -1,-2 0,0 0,-1 0,-1l1 0c1,0 2,0 2,2zm2 -13c0,-2 -1,-3 -2,-4l-2 2c1,1 1,1 1,2 0,2 -1,3 -3,3l0 0c-1,0 -2,-1 -2,-3 0,-1 0,-1 1,-2l-2 -2c-1,1 -2,3 -2,4 0,4 3,6 5,6l0 0c3,0 6,-2 6,-6zm-12 -6l0 -3 -2 0 0 3 2 0zm11 0l0 -3 -10 0 0 3 10 0zm0 -5l0 -3 -5 0c-2,0 -2,-1 -2,-2 0,-1 0,-2 2,-2l5 0 0 -3 -6 0c-2,0 -4,2 -4,4 0,1 1,2 2,3l-2 0 0 3 10 0zm4 -17c0,-2 -1,-3 -2,-4 -1,-1 -2,-1 -4,-1l-8 0 0 3 2 0c-1,0 -2,1 -2,3 0,2 2,4 5,4l0 0c3,0 5,-2 5,-4 0,-2 -1,-3 -2,-3l0 0c2,0 3,0 3,2 0,2 0,3 -1,4l2 1c1,-1 2,-3 2,-5zm-7 0c0,1 -1,2 -2,2l0 0c-2,0 -2,-1 -2,-2 0,-1 0,-2 2,-2l0 0c1,0 2,1 2,2zm4 -20c0,-2 -2,-4 -6,-4l0 0c-3,0 -5,2 -5,4 0,2 1,3 2,4l-5 0 0 2 13 0 0 -2 -1 0c1,-1 2,-2 2,-4zm-3 1c0,1 -1,3 -3,3l0 0c-1,0 -2,-2 -2,-3 0,-1 1,-2 2,-2l0 0c2,0 3,1 3,2zm6 -9c0,-2 -1,-3 -3,-4l-11 -4 0 3 7 3 -7 2 0 3 11 -4c0,0 0,1 0,1 0,0 0,1 0,1l2 1c0,-1 1,-1 1,-2zm-4 -15l0 -3 -5 0c-2,0 -2,-1 -2,-2 0,-1 0,-1 2,-1l5 0 0 -3 -5 0c-2,0 -2,-1 -2,-2 0,-1 0,-2 2,-2l5 0 0 -3 -6 0c-3,0 -4,2 -4,4 0,1 1,2 2,3 -1,1 -2,2 -2,3 0,2 1,2 2,3l-2 0 0 3 10 0zm1 -21c0,-1 -1,-2 -2,-3l1 0 0 -3 -5 0c-2,0 -3,1 -4,1 0,1 -1,2 -1,4 0,1 1,3 1,4l2 -1c0,-1 0,-2 0,-3 0,-1 0,-2 2,-2l0 0c-1,1 -1,1 -1,2 0,3 1,5 4,5l0 0c2,0 3,-2 3,-4zm-2 -1c0,1 -1,2 -2,2l0 0c-1,0 -1,-1 -1,-2 0,-1 0,-2 0,-2l1 0c1,0 2,1 2,2zm1 -7l0 -3 -13 0 0 3 13 0zm0 -6l0 -3 -5 0c-2,0 -2,-1 -2,-2 0,-1 0,-1 2,-1l5 0 0 -3 -5 0c-2,0 -2,-1 -2,-2 0,-1 0,-2 2,-2l5 0 0 -3 -6 0c-3,0 -4,2 -4,4 0,1 1,2 2,3 -1,1 -2,2 -2,3 0,2 1,2 2,3l-2 0 0 3 10 0zm1 -23c0,-3 -3,-6 -6,-6l0 0c-3,0 -5,3 -5,6 0,3 2,5 5,5l0 0c3,0 6,-2 6,-5zm-3 0c0,2 -1,3 -3,3l0 0c-1,0 -2,-1 -2,-3 0,-2 1,-3 2,-3l0 0c2,0 3,1 3,3zm3 -11c0,-2 -1,-4 -4,-4l0 0c-2,0 -2,2 -3,3 0,1 0,2 -1,2l0 0c0,0 -1,0 -1,-1 0,-1 1,-2 1,-3l-2 -1c0,1 -1,3 -1,4 0,2 1,4 3,4l0 0c2,0 3,-2 3,-3 1,-2 1,-2 2,-2l0 0c0,0 0,0 0,1 0,1 0,2 -1,3l2 1c1,-1 2,-3 2,-4z"/>
   <path class="fil1" d="M1213 2141l0 22c-94,-7 -127,27 -125,75 1,28 22,58 65,58 24,0 46,-11 61,-30l0 14c0,7 6,13 13,13l28 0 0 -142c0,-53 -29,-76 -84,-76 -25,0 -44,7 -60,15l-5 27c15,-11 33,-20 58,-20 30,0 49,12 49,44zm0 42l0 55c-9,21 -29,28 -45,28 -19,0 -35,-12 -37,-35 -1,-14 3,-28 15,-38 13,-10 34,-16 67,-10zm-487 29l0 -116c0,-9 -7,-16 -16,-16l-40 0c8,3 14,9 14,21l0 115c0,45 13,80 69,80 21,0 47,-11 58,-30l0 14c0,7 5,13 12,13l29 0 0 -213 -43 0 0 141c0,28 -11,38 -25,44 -17,7 -38,6 -49,-7 -9,-11 -9,-27 -9,-46zm-197 -132c8,3 14,9 14,21l0 192 42 0 0 -136c0,-27 13,-43 27,-49 10,-5 33,-9 48,0l-4 -27c-17,-6 -41,-6 -61,10 -4,3 -7,7 -10,12l0 -11c0,-7 -5,-12 -12,-12l-44 0zm-61 61l0 22c-94,-7 -127,27 -125,75 1,28 23,58 65,58 24,0 46,-11 61,-30l0 14c0,7 6,13 13,13l28 0 0 -142c0,-53 -29,-76 -83,-76 -26,0 -45,7 -61,15l-5 27c15,-11 33,-20 58,-20 30,0 49,12 49,44zm0 42l0 55c-9,21 -29,28 -45,28 -18,0 -35,-12 -37,-35 -1,-14 3,-28 15,-38 13,-10 34,-16 67,-10zm572 -177l-39 0c8,3 14,9 14,21l0 72c-9,-11 -25,-24 -51,-24 -41,0 -84,33 -84,111 0,62 26,110 80,110 20,0 41,-9 56,-24l0 8c0,7 6,13 13,13l28 0 0 -271c0,-8 -8,-16 -17,-16zm-25 149l0 94c-9,13 -22,21 -38,22 -45,1 -51,-56 -51,-87 0,-60 17,-85 50,-84 34,2 39,29 39,55zm-719 -143c-15,-5 -33,-9 -56,-9 -81,0 -140,51 -140,147 0,89 44,147 135,147 30,0 55,-4 77,-12l0 -149 -90 0 -4 23c7,-2 14,-3 22,-2l26 0 0 112c-8,2 -18,4 -30,4 -55,-3 -87,-33 -87,-122 0,-90 43,-124 96,-124 19,0 42,5 59,13l-8 -28zm2379 281l30 0 0 -200c0,-7 -6,-13 -13,-13l-43 0c8,3 14,9 14,21l0 180c0,7 5,12 12,12zm183 -152l0 22c-95,-7 -127,27 -125,75 1,28 22,58 65,58 24,0 46,-11 61,-30l0 14c0,7 6,13 13,13l28 0 0 -142c0,-53 -29,-76 -84,-76 -25,0 -44,7 -60,15l-5 27c15,-11 33,-20 57,-20 31,0 50,12 50,44zm0 42l0 55c-9,21 -29,28 -45,28 -19,0 -35,-12 -37,-35 -1,-14 3,-28 15,-38 12,-10 34,-16 67,-10zm-366 74l7 25c19,10 42,14 59,14 46,0 79,-26 79,-64 0,-30 -27,-50 -58,-62 -27,-10 -44,-21 -40,-43 3,-23 24,-30 41,-29 22,2 36,8 47,16l-7 -25c-16,-7 -32,-11 -45,-11 -46,-3 -78,19 -78,57 0,35 25,51 53,62 29,11 49,23 46,47 -4,24 -21,32 -43,32 -25,0 -49,-11 -61,-19zm-509 38c-48,0 -92,-21 -92,-109 0,-87 49,-111 92,-111 43,0 93,24 93,111 0,88 -45,109 -93,109zm1 -21c32,0 47,-26 47,-88 0,-62 -15,-87 -47,-88 -31,0 -49,25 -49,88 0,64 18,89 49,88zm247 3c0,9 8,16 16,16l27 0 0 -136c0,-45 -13,-80 -70,-80 -21,0 -46,11 -57,29l0 -14c0,-7 -6,-12 -13,-12l-42 0c8,3 14,9 14,21l0 192 42 0 0 -142c0,-27 11,-37 26,-43 17,-8 38,-6 49,7 8,11 8,26 8,46l0 116zm-620 0c0,9 7,16 16,16l26 0 0 -136c0,-45 -13,-80 -69,-80 -21,0 -47,11 -57,29l0 -14c0,-7 -6,-12 -13,-12l-43 0c8,3 15,9 14,21l0 192 43 0 0 -142c0,-27 11,-37 25,-43 18,-8 38,-6 49,7 9,11 9,26 9,46l0 116zm233 -271l-39 0c8,3 14,9 14,21l0 72c-9,-11 -25,-24 -51,-24 -41,0 -84,33 -84,111 0,62 26,110 80,110 19,0 40,-9 56,-24l0 8c0,7 6,13 13,13l28 0 0 -271c0,-8 -8,-16 -17,-16zm-25 149l0 94c-9,13 -23,21 -39,22 -45,1 -51,-56 -51,-87 0,-60 18,-85 51,-84 33,2 39,29 39,55zm-392 -149l-47 0c8,3 15,9 15,21l0 253c0,7 5,13 12,13l34 0 0 -273c0,-8 -6,-14 -14,-14zm921 181l0 -45c0,-27 17,-46 45,-46 20,0 39,2 38,43 -1,30 -18,57 -83,48zm0 20l0 22c0,32 18,45 49,45 25,0 55,-13 68,-24l-5 27c-21,10 -45,19 -71,19 -54,0 -84,-23 -84,-75l0 -63c0,-66 45,-85 103,-83 42,1 62,30 63,58 2,48 -37,84 -123,74z"/>
   <path class="fil2" d="M849 1452l-121 0 -14 -23 154 0c0,0 288,-1 423,44 93,30 187,84 275,147 87,63 210,151 210,151 -32,26 -57,52 -102,52 -35,0 -71,-20 -71,-20l-305 -220c-83,-59 -177,-101 -278,-118 -57,-10 -114,-10 -171,-13zm-225 -180l140 0c168,-1 259,6 394,56 124,45 231,121 338,197l226 163c0,0 39,33 78,33 47,0 79,-25 116,-50l-303 -222c0,0 -132,-98 -294,-152 -179,-59 -475,-49 -475,-49l-234 0 14 24zm-119 -207l289 0c0,0 360,0 502,34 115,29 267,107 349,169 82,63 410,300 410,300 0,0 -41,47 -108,47 -50,0 -68,-19 -82,-26l-372 -268c-103,-74 -210,-137 -324,-177 -114,-40 -234,-56 -364,-56l-287 0 -13 -23z"/>
   <path class="fil3" d="M853 884c287,0 462,32 596,82 102,39 189,94 276,157l474 341c0,0 -20,20 -47,35 -47,26 -110,16 -159,-22l-442 -314c-134,-95 -265,-175 -426,-219 -119,-33 -347,-36 -347,-36l-363 0 -14 -24 452 0zm-544 -159l439 0c0,0 244,10 361,35 183,43 343,129 503,243l521 372c43,32 100,52 146,27 21,-11 37,-25 54,-40l-598 -431c-99,-71 -220,-122 -319,-152 -138,-42 -294,-76 -580,-76l-539 0 12 22zm1888 385c-33,-1 -56,-3 -86,-10 -50,-12 -70,-50 -70,-50 -18,37 31,81 55,98l239 170c36,21 56,4 56,4 0,0 62,-33 95,-40 33,-8 127,-11 139,-9 12,2 57,32 57,32 15,-106 -54,-116 -98,-122 -43,-7 -103,-11 -103,-11l-80 21 -47 -35c0,0 95,7 120,8 25,1 19,-10 7,-34 -12,-24 -39,-22 -39,-22l-245 0z"/>
  </g>
  <polygon class="fil4" points="0,0 3000,0 3000,3000 0,3000 "/>
 </g>
</svg>
