<svg width="84" height="30" fill="none" xmlns="http://www.w3.org/2000/svg"><path d="M14.905 30c8.232 0 14.906-6.716 14.906-15 0-8.284-6.674-15-14.906-15S0 6.716 0 15c0 8.284 6.673 15 14.905 15z" fill="#01AED6"/><path d="M23.199 13.66a3.375 3.375 0 0 0-1.099-1.736 3.34 3.34 0 0 0-1.896-.77H10.136a.682.682 0 0 1-.734-.391.694.694 0 0 1 .44-.956.682.682 0 0 1 .294-.016h9.78s-.037-2.614-3.32-2.614h-5.271c-2.259 0-4.657 1.2-4.797 4.141a59.875 59.875 0 0 0 0 7.373c.14 1.709.61 3.668 4.327 3.995 3.717.328 7.832.146 9.277-.181a3.998 3.998 0 0 0 2.135-1.325 4.04 4.04 0 0 0 .932-2.344c.145-2.05.361-3.722 0-5.177zm-2.633 3.217v.91a.62.62 0 0 1-.614.617.613.613 0 0 1-.615-.618v-.909a.955.955 0 0 1 .614-1.682.944.944 0 0 1 .89.626.96.96 0 0 1-.275 1.056z" fill="#fff"/><path d="M48.5 8.982c-2.65 0-4.8 2.005-4.8 4.482 0 2.477 2.15 4.482 4.8 4.482 2.652 0 4.797-2.01 4.797-4.482 0-2.473-2.145-4.482-4.796-4.482zm0 6.818a2.421 2.421 0 0 1-1.739-.65 2.452 2.452 0 0 1-.776-1.695 2.547 2.547 0 0 1 .807-1.657 2.516 2.516 0 0 1 3.417 0c.466.431.754 1.022.807 1.657a2.454 2.454 0 0 1-.772 1.703 2.422 2.422 0 0 1-1.743.651V15.8zm11.041-6.818c-.979 0-1.927.346-2.678.977v-.745h-2.408v11.818h2.407v-4.25c.75.634 1.7.982 2.679.982a4.35 4.35 0 0 0 3.085-1.286 4.405 4.405 0 0 0 1.278-3.105c0-1.165-.46-2.281-1.278-3.105a4.35 4.35 0 0 0-3.085-1.286zm-.452 6.818a2.348 2.348 0 0 1-1.355-.443 2.371 2.371 0 0 1-.853-1.148v-1.672c.16-.462.458-.862.854-1.146a2.343 2.343 0 0 1 1.354-.44 2.4 2.4 0 0 1 1.703.709 2.43 2.43 0 0 1 0 3.426 2.4 2.4 0 0 1-1.703.71v.004zM80.58 8.982l-2.737 5.577-2.737-5.577H72.69l3.943 8.04-1.96 3.996h2.42l.75-1.532 1.21-2.463 3.948-8.041h-2.42zm-38.027 9.05V9.055H40.42v.827a4.337 4.337 0 0 0-6.229 1.306 4.403 4.403 0 0 0 0 4.552 4.365 4.365 0 0 0 1.716 1.614 4.331 4.331 0 0 0 4.513-.308v.631c0 1.123-1.093 2.028-2.444 2.028a2.44 2.44 0 0 1-1.36-.335 2.463 2.463 0 0 1-.957-1.029l-1.784 1.441a4.766 4.766 0 0 0 1.772 1.55c.71.36 1.499.535 2.293.51 2.462 0 4.467-1.615 4.571-3.637v-.178l.04.005zm-4.422-2.09a2.475 2.475 0 0 1-2.181-1.319 2.494 2.494 0 0 1 .137-2.557 2.452 2.452 0 0 1 3.536-.58c.357.274.633.64.798 1.06v1.818c-.18.464-.495.863-.903 1.144a2.45 2.45 0 0 1-1.387.433zm30.317-6.96c-3.008 0-3.975 1.95-4.354 2.727l2.019.482s.217-1.473 2.385-1.473c2.168 0 1.874 1.473-.145 1.741s-4.26.76-4.26 2.664c0 1.65 1.419 2.59 3.393 2.59 1.974 0 2.67-1.163 2.67-1.163v1.164h2.113v-5.632c0-1.305-.813-3.1-3.821-3.1zm-.867 6.955c-1.902 0-1.658-1.482-.578-1.6 1.355-.155 2.552-.369 3.202-.996 0 1.455-.723 2.596-2.624 2.596z" fill="#080403"/></svg>