<svg width="89" height="30" fill="none" xmlns="http://www.w3.org/2000/svg"><path fill-rule="evenodd" clip-rule="evenodd" d="M2.57 0h83.86a2.574 2.574 0 0 1 1.815.759c.481.484.753 1.139.755 1.823v24.836a2.597 2.597 0 0 1-.755 1.823A2.574 2.574 0 0 1 86.43 30H2.57a2.574 2.574 0 0 1-1.815-.759A2.597 2.597 0 0 1 0 27.418V2.582c.002-.684.274-1.34.755-1.823A2.574 2.574 0 0 1 2.57 0z" fill="#F0F0F0"/><path fill-rule="evenodd" clip-rule="evenodd" d="M88.006 20.364v7.054a1.61 1.61 0 0 1-.462 1.124c-.294.3-.694.47-1.113.476H2.57a1.598 1.598 0 0 1-1.123-.471 1.613 1.613 0 0 1-.47-1.129v-7.054h87.028z" fill="#FECF22"/><path d="M88.006 10.65H.979v8.7h87.027v-8.7z" fill="#006AB4"/><path fill-rule="evenodd" clip-rule="evenodd" d="M2.571.982h83.86a1.596 1.596 0 0 1 1.588 1.6v7.054H.98V2.582a1.607 1.607 0 0 1 1.592-1.6z" fill="#D61627"/><path fill-rule="evenodd" clip-rule="evenodd" d="M14.276 7.054a96.39 96.39 0 0 1 15.48-3.372c4.154-.505 8.333-.762 12.517-.768h4.606c4.154.007 8.303.267 12.426.777 5.21.7 10.356 1.823 15.386 3.359a4.04 4.04 0 0 1 1.724.959 2.64 2.64 0 0 1 .8 1.932v10.118a2.647 2.647 0 0 1-.8 1.927 4.04 4.04 0 0 1-1.724.96 96.244 96.244 0 0 1-15.386 3.358c-4.123.51-8.272.77-12.426.782h-3.552c-4.46.037-8.919-.205-13.35-.722a96.013 96.013 0 0 1-15.701-3.405 4.04 4.04 0 0 1-1.724-.96 2.636 2.636 0 0 1-.788-1.94V9.945a2.65 2.65 0 0 1 .801-1.931 4.041 4.041 0 0 1 1.71-.96z" fill="#E6E6E6"/><path fill-rule="evenodd" clip-rule="evenodd" d="M54.61 18.418c-.366-.509 0-1.363.24-1.818.24-.455.674-1.145 1.308-1.023.294 1.055-.643 2.96-1.548 2.855v-.014zM34.844 15.5c.453 1.186-1.077 3.36-1.597 2.764-.425-.455.566-3.01 1.597-2.764zm3.258 2.768l-.18-.404c-.516.113-1.326.59-1.901.454-.312-.718 1.941-5.454 2.371-6.886l-1.131.05c-.317.527-.905 2.377-1.195 2.759-2-.21-2.833.368-3.647 1.44-1.321 1.737-.348 1.915-1.357 2.483-.878.5-.752.218-.815.145-.367-.318.656-2.514.751-2.99.127-.624-.195-1.124-.77-1.092-.574.032-.945.418-1.33.628-1.357.722-.076-2.073-3.71.509-.28.2-.987.609-1.122.745.027-.227 1.077-2.495 1.29-3.027a65.084 65.084 0 0 0 1.171-3.127c-1.321-.087-5.249.595-6.444 1.668-2.262 2.023.453 4.7 2.213 2.64-.43-.308-1.09 0-1.19-.804a1.461 1.461 0 0 1 .525-1.423c.453-.345 2.421-.704 3.118-.836-.15.503-.324.998-.525 1.482-.778 2.177-1.733 5.504-4.525 5.59-1.448.046-1.865-.604-2.376-1.6a1.863 1.863 0 0 0-.267 1.65 1.819 1.819 0 0 0 1 1.042c2.163 1.05 4.073-.719 5.611-1.914.385-.3 1.81-1.768 2.566-1.404.416.827-.787 2.568-.81 3.427l1.426.027c.253-.709.452-1.482.706-2.227.208-.632.502-1.764 1.325-1.191.322.85-1.027 2.632-.29 3.227.738.596 2.485-.618 2.892-.868.322.454.317 1.04 1.14 1.177a2.217 2.217 0 0 0 1.711-.527c.235.29.177.577.715.527.539-.05 2.104-1.086 3.041-1.363l.014.013zm27.06-1.213c-.063-.746.756-1.778 1.358-1.75.195.454-.144.909-.362 1.181-.217.273-.543.614-.995.569zm-21.47-1.778l.162.505c.453-.127.941-.418 1.39-.296.14.855-1.15 3.182-1.358 4.182l1.402-.027a18.01 18.01 0 0 0 .783-2.132c.222-.595.485-1.759 1.299-1.473.48.955-.828 2.669-.905 3.605h1.602c.294-.86.629-1.923.977-2.773.172-.418.353-1.077.978-.909.706.2-.516 1.532-.503 2.727a.87.87 0 0 0 .543.883.856.856 0 0 0 .362.058c.697-.068 1.87-1.031 2.467-1.163.276.618.334 1.009 1.068 1.122.733.114 1.203-.231 1.701-.495l.04.05.105.15c.15.218.23.382.588.418 1.181.118 2.928-1.777 3.62-2.677.76-1.014.453-.936 1.43-1.023-.213.91-1.271 2.418-.375 3.318.896.9 2.674-.313 3.217-.632.498.555.765 1.046 1.95.991.937-.04 1.457-.422 2.209-.64.904 1.509 3.896.027 3.782-.91-.389-.072-.837.455-1.23.678-.548.295-1.105.109-1.118-.532.226-1.007.529-1.994.905-2.955h.905l.299-1.031h-.634c.118-1.082.688-2.01.905-2.969l-1.271.05-1.019 2.832-.927.055-.258 1.045h.733a7.59 7.59 0 0 1-1.245 3.005c-.529.663-2.42 1.059-2.764-.1.452-.5 1.217-.614 1.81-1.664 1.516-2.632-1.507-2.95-2.715-1.118-.774 1.145-.534 1.5-.494 2.854-1.52.85-2.054 1.019-1.918-.477.136-1.495.37-1.29.62-1.559a.579.579 0 0 0 .054-.782c-.24-.25-.656-.027-1.104-.19-.285-.714.204-.833.398-1.219a7.812 7.812 0 0 1-.805-.068c-.326-.123-.145-.273-.403-.355-.362.137-.385.15-.512.555-.366 1.164-.23 1.418-.868 2.314-.344.486-1.512 2.127-2.317 1.818-.371-.496 1.045-3.373 1.222-4.091-1.444-.11-1.227.164-1.43.39-1.33-.604-2.032-.09-2.847.637-1.172 1.046-1.221 2.55-1.357 2.727-.358.232-1.077.55-1.602.36-.154-.605.778-2.369.932-3.087.154-.718-.276-1.159-1.036-.963-.57.15-.788.681-1.312.75-.453-.314-.453-.969-1.358-.814-.638.109-.679.609-1.398.754a.301.301 0 0 1-.032-.068l-.081-.2c-.037-.1-.118-.409-.276-.495-.77-.11-2.222.832-2.987 1.054z" fill="#006AB4"/><path fill-rule="evenodd" clip-rule="evenodd" d="M40.854 14.864c.41.002.805.146 1.12.409a1.778 1.778 0 0 1 .428 2.212 1.761 1.761 0 0 1-3.03.14 1.783 1.783 0 0 1 .802-2.629c.216-.089.447-.134.68-.132zm0-1.541a3.302 3.302 0 0 0-2.1.752 3.336 3.336 0 0 0-.822 4.135c.361.678.945 1.21 1.652 1.505a3.294 3.294 0 0 0 2.226.11 3.31 3.31 0 0 0 1.791-1.333 3.334 3.334 0 0 0-.412-4.197 3.299 3.299 0 0 0-2.335-.972zm2.077 1.223a2.931 2.931 0 0 0-4.887 1.228 2.962 2.962 0 0 0 .097 1.985c.26.63.73 1.151 1.328 1.473a2.925 2.925 0 0 0 3.655-.729 2.958 2.958 0 0 0-.193-3.957zm-2.077-.455a2.537 2.537 0 0 0-1.61.585 2.557 2.557 0 0 0-.62 3.178 2.533 2.533 0 0 0 4.355.21 2.564 2.564 0 0 0-1.144-3.781 2.516 2.516 0 0 0-.98-.192zm1.534 1.009a2.164 2.164 0 0 0-3.604.912 2.186 2.186 0 0 0 1.053 2.551 2.159 2.159 0 0 0 2.696-.538 2.183 2.183 0 0 0-.145-2.925zm-.538.546a1.407 1.407 0 0 0-1.534-.307 1.409 1.409 0 0 0-.763.765 1.42 1.42 0 0 0 .306 1.541 1.405 1.405 0 0 0 1.99 0 1.417 1.417 0 0 0 0-2z" fill="#D61627"/><path fill-rule="evenodd" clip-rule="evenodd" d="M14.69 8.468c11.53-3.431 19.457-4.09 29.055-4.09h1.665c9.503 0 17.422.677 28.889 4.09.774.232 1.466.664 1.466 1.478v10.113c0 .81-.692 1.241-1.466 1.473-11.467 3.414-19.372 4.09-28.889 4.09h-1.22c-9.793 0-17.793-.604-29.5-4.09-.773-.232-1.47-.664-1.47-1.473V9.946c0-.814.697-1.246 1.47-1.478zm29.263-1.877c-8.96.036-16.987.377-27.49 3.105-.783.204-1.466.668-1.466 1.477v7.654c0 .814.683 1.273 1.466 1.478 10.408 2.704 18.404 3.063 27.282 3.104h1.507c8.878-.04 16.86-.4 27.282-3.104C73.312 20.1 74 19.64 74 18.827v-7.654c0-.81-.688-1.273-1.466-1.477-10.503-2.728-18.553-3.069-27.49-3.105h-1.09z" fill="#D61627"/></svg>