<svg xmlns="http://www.w3.org/2000/svg" height="800" width="1200" id="svg9506" version="1.1" xml:space="preserve" clip-rule="evenodd" fill-rule="evenodd" image-rendering="optimizeQuality" shape-rendering="geometricPrecision" text-rendering="geometricPrecision" viewBox="-3953.62035 -1725.8045 34264.7097 10354.827"><defs id="defs9481"><style id="style9479" type="text/css">.fil0{fill:#fb0102}</style></defs><g transform="translate(-.532 -1.084)" id="Layer_x0020_1"><g id="_118875824"><path id="path9484" d="M814 1966C568 2665 323 3364 77 4063c-16 59-33 119-45 176-13 57-22 113-27 170-5 58-6 118-2 174s14 107 34 168 49 132 86 194c38 62 85 115 140 158 55 44 118 78 193 105s163 45 237 55c74 9 133 9 192 9h1695c14-1 28-2 42-6 13-4 26-12 40-21s28-20 40-34c13-14 24-32 33-50s17-37 24-56c61-186 121-372 165-510s72-227 88-279 19-66 20-79 1-24-1-35-7-22-13-31c-7-9-16-17-25-22s-18-8-29-10c-10-2-22-2-33-3H1695c-19 0-39 0-56-4-18-4-34-13-48-22-15-9-27-19-38-31s-19-27-26-46c-6-19-11-41-12-65-1-23 1-47 7-75 6-29 16-62 25-95 206-605 412-1210 617-1816 3-11 5-22 5-35-1-13-4-28-10-40s-14-21-22-28-17-10-27-12-22-2-34-3H958c-9 1-18 1-28 3-9 2-19 5-28 8-9 4-18 9-27 14-8 5-16 11-24 19-8 7-16 16-22 26s-10 21-15 32z" class="fil0"/><path id="path9486" d="M3951 2816c-10 1-19 1-30 4-10 3-21 7-30 12s-16 9-22 15c-7 5-13 12-18 19s-9 15-13 23l-699 2265c-2 8-3 16-4 23 0 8 1 15 3 22s6 14 12 20 14 12 21 16 14 6 20 7l18 3h1069c10 0 20 0 31-3 10-3 20-8 29-13s16-10 22-20c7-10 13-26 19-42 239-755 478-1510 717-2266 2-7 3-14 4-21s1-15 0-22-3-12-7-17c-3-5-8-10-13-14s-11-6-16-8c-5-1-11-2-16-2H3951z" class="fil0"/><path id="path9488" d="M7152 4055c-214 452-1216 507-1001-95 65-182 309-348 563-369 282-24 585 155 439 465zm1113-103c307-1065-1233-1767-2645-756-679 486-915 1441-207 1873 359 219 720 270 1216 191 631-100 1430-594 1636-1309z" class="fil0"/><ellipse cy="0" cx="0" id="ellipse9490" ry="252" rx="718" transform="matrix(1.00312 -.15888 .11661 1.88635 4664.69 2095.12)" class="fil0"/><path id="path9492" d="M8945 2803c-243 775-486 1551-729 2326-3 15-6 29-5 42 0 13 4 25 9 35s12 17 20 23 16 10 24 12c7 2 13 2 19 2h1061c10 0 21 0 32-2s24-6 34-10 17-8 24-14 13-14 18-22 8-16 12-24c134-454 267-908 401-1362 9-24 18-47 34-63 16-15 40-21 74-28 34-6 78-12 136-16s130-7 185-8c55-2 94-2 123 2s48 13 61 22c14 9 22 18 31 32 8 13 16 31 20 58s4 62 0 93c-4 30-13 56-26 94s-29 90-90 283-167 528-272 863c-2 7-3 14-4 22s-1 17 0 25 4 16 9 24 11 15 19 20 17 8 25 9 14 2 20 2h1088c13 0 26 0 36-3 11-3 20-8 28-14s15-13 21-20c5-7 9-13 12-19 125-412 251-824 376-1236 8-29 17-58 26-105s17-113 22-166c4-53 4-94 0-145s-12-112-21-160-18-82-31-113c-13-30-30-57-52-91-21-35-47-78-77-116-30-39-65-73-109-108-44-34-96-69-143-95s-90-43-133-60-87-34-140-47-116-22-212-26-224-4-331-1c-107 4-191 11-267 21-75 10-142 23-203 37-62 14-118 29-177 45-58 16-118 32-180 41-62 8-127 8-174 4-46-4-74-11-107-20-33-8-72-17-106-24-35-8-65-14-104-18-38-4-84-6-137-6s-113 3-172 6z" class="fil0"/><path id="path9494" d="M22758 2760c-7 0-13 1-20 2-7 2-13 4-19 8s-11 9-16 14c-4 5-8 10-11 16s-6 13-8 19c-240 781-479 1562-719 2343-1 7-3 14-3 22s2 15 5 22 8 13 14 17c6 5 15 8 22 10 8 2 15 2 22 2h1117c10-1 20-1 29-4s16-8 23-14c6-6 11-14 15-21 3-7 5-13 7-19l732-2358c1-5 2-10 2-15s0-10-2-16c-2-5-4-11-8-15s-9-8-15-10-12-3-19-4c-6-1-13-1-19-1h-1131z" class="fil0"/><ellipse cy="0" cx="0" id="ellipse9496" ry="252" rx="718" transform="matrix(1.00312 -.15888 .11661 1.88635 23495.9 2055.9)" class="fil0"/><path id="path9498" d="M20715 3860c-82 275-243 799-403 1324-1 4-1 8-1 14 1 6 3 13 7 19s11 11 17 14 12 4 16 4c4 1 8 1 11 1h1116c6-1 13-1 19-2s11-3 17-5 12-5 19-9c6-4 13-10 18-16 5-7 10-14 14-22 247-790 493-1579 740-2369 3-10 5-20 4-29-2-9-7-17-13-21s-12-4-18-4c-136 0-272 0-363-4-90-4-135-11-177-20s-80-18-120-31-82-29-119-42-68-22-118-35-118-30-176-43-106-22-173-31-152-17-232-22c-80-4-154-4-232 0s-161 13-225 23c-64 9-110 19-155 32s-90 28-134 45-88 34-133 55-92 45-143 73-106 60-162 100-114 89-172 140-116 105-171 163c-56 58-110 121-161 196s-100 161-142 240-77 150-106 215c-29 66-53 126-77 209-24 84-47 191-58 281s-11 164-7 222 13 101 22 140 17 73 26 103 17 57 28 82c10 26 23 51 38 76 15 26 32 52 51 78 20 26 42 52 62 73 20 22 37 39 59 56s48 34 78 51 65 34 105 47 85 22 131 27c45 5 91 5 134 5s83 0 119-4 68-13 106-26 81-30 119-47c39-17 73-35 112-57 38-22 81-48 120-74s73-52 107-82 68-64 93-93c26-30 43-55 61-81 17-26 35-53 52-83s35-63 48-97 21-69 30-103c-17 9-34 18-57 27s-51 17-93 30-97 30-147 38-93 8-128 4-61-12-88-25-55-29-78-51c-24-22-43-48-56-75s-19-55-22-97-3-97 2-144c4-47 13-85 21-125 9-40 18-81 31-123 13-43 30-87 51-135s47-100 77-151c30-52 64-104 112-160 47-56 108-116 162-159s100-69 145-86 88-26 129-31c41-4 80-4 118 1 37 5 72 14 98 27s42 29 57 46c14 17 26 34 34 56 9 22 15 48 17 74 3 26 2 52 0 78-3 26-7 52-90 327z" class="fil0"/><path id="path9500" d="M24346 2760c-248 796-495 1592-743 2389-2 9-4 19-4 29s3 21 9 30c5 9 13 15 23 19s23 7 32 8 15 1 21 1h1039c9 0 17 0 30-3 12-3 29-8 44-16s30-20 40-34 16-30 22-47c110-381 220-763 330-1144 11-32 22-64 35-91s29-48 46-67c17-18 35-34 52-47 17-14 35-26 53-36 19-11 39-20 62-28s50-16 77-21c26-5 52-9 77-9s48 2 68 5c20 4 35 8 55 15 19 7 43 15 66 23 193-234 385-468 578-701-9-25-17-49-30-74s-30-49-53-74-52-49-83-70c-31-20-63-37-96-49-33-13-66-23-108-32-41-9-91-18-160-21s-159-1-239 6-152 19-222 29-138 19-205 25-135 11-202 12-134 0-186-5-88-13-156-17c-69-4-170-4-271-4z" class="fil0"/><path id="path9502" d="M17891 1731c-15 66-75 153-105 210-19-14-50-55-73-79-30-31-47-59-67-96 52 0 93-3 130-10 53-9 70-22 115-25zm-1534 4236c-6-41-14-92-21-144l132-9h4c72-5 193-23 395-129 123-65 294-238 373-350 126-180 193-405 193-636v-11c0-60-6-119-15-176-1-4-1-9-2-13l-1-3c-18-105-51-209-100-309-141-291-412-495-719-577-63-17-128-29-194-35l-11-1-10-1c-184-14-373 16-549 96-17 8-33 15-48 23-135 68-254 163-351 276l-2 3-19-9c-350-168-866-1142-988-1585-151-548-247-1480-124-2048 19-88 43-212 52-255-355-225-844 81-899 776-89 1120 598 2291 1399 2987 116 101 205 166 269 216l172 125c-25 48-47 99-65 151-123-73-232-142-366-243-117-87-224-169-333-261-241-206-367-348-586-602-271-314-736-1098-760-1641-526-70-853 924 132 1831 638 588 1057 765 1866 1104-7 41-11 82-13 124l-1 11c-130 11-615-144-753-194-1267-460-1562-1010-1709-1165-207 147-241 571-58 816 310 415 983 654 1508 713 326 37 577 53 904 39l120-11c8 56 20 111 35 164l-18 4-22 5h-1c-689 141-1235 111-1894-100-188-60-431-204-462-221-59 49-171 888 972 897 287 2 575-54 822-133 233-75 445-166 681-257 23 44 48 86 77 127l-33 30c-7 8-16 15-25 23-158 135-547 300-748 365-450 145-648 122-1095 70 54 594 720 522 1098 373 383-151 637-437 919-719 32 33 66 64 102 93-24 54-51 99-82 145-164 239-571 549-812 659-248 113-390 120-427 127 23 155 185 239 375 238 570-5 940-734 1044-944l59-118c38 22 78 41 119 58l-43 142c-2 6-4 13-6 20v1c-25 78-72 181-150 312-290 488-553 562-583 577 66 116 268 147 420 85 371-150 427-698 492-1006l16-83c40 11 80 19 122 25l1 5c68 641-219 950-237 980 197 34 368-2 459-152 88-145 46-390 24-567 200-7 433-75 585-125 483-161 803-572 936-1052 13-46 33-93 44-142 77 0 163-8 163-105 0-21-19-84-29-100-30-48-158-129-158-262 0-29 17-77 23-105 63-5 152-70 152-140 0-105-178-160-243-224-64-64-143-225-143-324 0-60-30-210 58-210 93 0 467 191 467-385-146 70-252 117-399 2-172-134-29-597 294-597 70 0 120 15 155 55 31 35 53 107 55 167 65-43 112-100 160-166 29-40 85-192 85-254 0-43-22-58-19-92 5-55 81-128-15-189-76-48-226 41-483-88-34-17-71-43-101-51 1-65 23-75 23-140 0-102-318-230-427-297-76-47-146-95-206-155-84-85-125-154-136-199-17-8-33-14-59-14-96 0-168 73-187 152-21-22-37-38-67-58-30-21-63-38-93-51-215-92-358-97-587-218-85 57-156 149-128 268-108-57-205-47-321-30-70 10-293 41-350 37-56 0-134-10-180-19-5 65-35 118-35 198 0 79 24 129 35 152-132 0-198 1-304 22-110 22-191 28-302 24-33 140-38 210 37 348 27 50 88 140 114 166-58 20-163 40-222 47 0 165 71 398 114 551 127 454 351 833 633 1199 28 36 54 66 82 93 29-28 50-46 82-70 264-205 515-292 875-292 171 0 381 61 498 120 158 80 250 143 368 262 168 168 272 369 331 603 121 475-48 1040-446 1327-70 50-134 87-213 127-126 63-353 122-532 128zm1534-4236zm-1307-152c0 44 41 123 23 128-94-8-140-98-140-198 0-190 351-256 408-12-42-21-126-47-175-47-56 0-117 73-117 128z" class="fil0"/></g></g></svg>