<svg width="103" height="30" fill="none" xmlns="http://www.w3.org/2000/svg"><path d="M.105 20.617c0-1.491-.028-2.727-.105-3.855h2.818l.132 1.914h.082a4.477 4.477 0 0 1 3.987-2.21 3.738 3.738 0 0 1 3.591 2.392h.055a4.927 4.927 0 0 1 1.59-1.618 4.342 4.342 0 0 1 2.61-.773c2.155 0 4.332 1.463 4.332 5.613v7.627h-3.182v-7.15c0-2.154-.741-3.431-2.314-3.431a2.5 2.5 0 0 0-2.273 1.732 4.74 4.74 0 0 0-.159 1.086v7.763H8.087v-7.5c0-1.818-.718-3.081-2.232-3.081a2.565 2.565 0 0 0-2.341 1.859c-.13.34-.193.7-.186 1.063v7.659H.145l-.04-9.09zm31.527 5.981c-.017 1.04.044 2.079.182 3.109h-2.95l-.232-1.436h-.078a4.804 4.804 0 0 1-3.827 1.727c-2.61 0-4.069-1.886-4.069-3.854 0-3.273 2.896-4.918 7.683-4.891v-.214c0-.85-.346-2.272-2.632-2.272a6.86 6.86 0 0 0-3.487.959l-.636-2.127a9.31 9.31 0 0 1 4.677-1.146c4.15 0 5.35 2.637 5.35 5.454l.019 4.691zM28.45 23.38c-2.319-.054-4.523.455-4.523 2.418a1.717 1.717 0 0 0 1.864 1.864 2.65 2.65 0 0 0 2.55-1.782 2.3 2.3 0 0 0 .109-.718V23.38zm5.44-2.764c0-1.49-.028-2.727-.105-3.854h2.869l.159 1.94h.081a4.673 4.673 0 0 1 4.119-2.235c2.273 0 4.6 1.463 4.6 5.558v7.682h-3.268v-7.309c0-1.863-.691-3.272-2.473-3.272a2.75 2.75 0 0 0-2.555 1.913c-.1.345-.144.704-.132 1.064v7.604H33.89v-9.09zm25.907-9.053v14.503c0 1.327.054 2.764.105 3.636h-2.924l-.131-2.045h-.032a4.669 4.669 0 0 1-4.228 2.336c-3.086 0-5.532-2.631-5.532-6.618-.027-4.331 2.687-6.913 5.796-6.913 1.782 0 3.06.746 3.636 1.705h.055v-6.605h3.255zm-3.273 10.594a4.543 4.543 0 0 0-.077-.854 2.863 2.863 0 0 0-2.819-2.31c-2.1 0-3.273 1.864-3.273 4.282s1.173 4.091 3.246 4.091a2.887 2.887 0 0 0 2.818-2.314c.078-.311.113-.633.105-.954v-1.94zm5.587-5.394h3.296v12.944H62.11V16.763zm5.613 4.172c0-1.754-.028-3.004-.105-4.172h2.832l.105 2.468h.104a3.568 3.568 0 0 1 3.541-2.468 3.53 3.53 0 0 1 .769 0v2.872a4.474 4.474 0 0 0-.96-.109 2.878 2.878 0 0 0-2.922 2.468 5.564 5.564 0 0 0-.105 1.014v6.7h-3.26v-8.773zm8.774-4.172h3.29v12.944h-3.29V16.763z" fill="#003D79"/><path d="M75.82 1.09c-1.982 1.15-8.451 4.846-8.451 4.846-2.432 1-4.291-.218-4.892-1.114a.564.564 0 0 1-.072-.109l-.078-.136-.413-.668a11.683 11.683 0 0 0-.591-.855 9.137 9.137 0 0 0-.664-.75C59.086.727 56.604-.377 52.45 1.6l-8.364 4.763-4.282 2.446 2.214 2.727c.931.909 2.682 2.345 5.39 1.118 0 0 7.479-4.327 7.51-4.34 6.392-3.51 9.547-.16 10.938 2.076.05.069.09.146.132.214a.621.621 0 0 1 .04.082l.16.254a3.496 3.496 0 0 0 3.027 1.664 3.74 3.74 0 0 0 1.882-.627L78.33 7.78c6.469-3.55 9.678 0 11.046 2.25.105.19.222.374.35.55a3.332 3.332 0 0 0 2.805 1.496 4.31 4.31 0 0 0 1.796-.573l8.673-5a35.654 35.654 0 0 0-2.727-3.422c-1.632-1.864-3.369-1.023-4.746-.337-.578.287-4.764 2.66-4.764 2.66-2.273.945-4.092-.087-4.783-.955a2.578 2.578 0 0 1-.186-.26l-.16-.286a12.969 12.969 0 0 0-.908-1.363 7.765 7.765 0 0 0-.637-.773A5.623 5.623 0 0 0 79.965 0a9.652 9.652 0 0 0-4.145 1.09z" fill="url(#paint0_linear)"/><defs><linearGradient id="paint0_linear" x1="45.121" y1="20.483" x2="112.864" y2="-10.821" gradientUnits="userSpaceOnUse"><stop stop-color="#FDB913"/><stop offset=".22" stop-color="#FFCB05"/><stop offset=".39" stop-color="#FAA61A"/><stop offset=".53" stop-color="#FFCB05"/><stop offset=".65" stop-color="#FAA61A"/><stop offset=".76" stop-color="#FFCB05"/><stop offset="1" stop-color="#FFCB05"/></linearGradient></defs></svg>