<svg width="91" height="30" fill="none" xmlns="http://www.w3.org/2000/svg"><path d="M76.266 0a14.797 14.797 0 0 0-8.283 2.458 14.91 14.91 0 0 0-5.522 6.675 14.998 14.998 0 0 0-.893 8.634 14.951 14.951 0 0 0 4.037 7.673 14.83 14.83 0 0 0 7.603 4.119c2.884.585 5.876.297 8.597-.83a14.867 14.867 0 0 0 6.684-5.496A14.98 14.98 0 0 0 91 14.927a14.934 14.934 0 0 0-1.103-5.694 14.874 14.874 0 0 0-3.188-4.836 14.788 14.788 0 0 0-4.786-3.242A14.728 14.728 0 0 0 76.266 0zm0 25.027c-5.074 0-9.19-4.545-9.19-10.1 0-5.554 4.116-10.1 9.19-10.1s9.19 4.546 9.19 10.1c0 5.555-4.116 10.1-9.19 10.1zM14.97 0a14.797 14.797 0 0 0-8.284 2.458 14.91 14.91 0 0 0-5.521 6.675 14.997 14.997 0 0 0-.894 8.634 14.951 14.951 0 0 0 4.037 7.673 14.83 14.83 0 0 0 7.603 4.119c2.884.585 5.876.297 8.597-.83a14.868 14.868 0 0 0 6.684-5.496 14.981 14.981 0 0 0 2.511-8.306A14.932 14.932 0 0 0 28.6 9.233a14.874 14.874 0 0 0-3.188-4.836 14.789 14.789 0 0 0-4.786-3.242A14.728 14.728 0 0 0 14.969 0zm0 25.027c-5.075 0-9.19-4.545-9.19-10.1 0-5.554 4.115-10.1 9.19-10.1 5.073 0 9.189 4.546 9.189 10.1 0 5.555-4.111 10.1-9.19 10.1zM50.327 5.682h2.94L46.708 21.86 39.862 5.682h2.65V.855H30.898v4.827h2.976l9.013 21.363a4.809 4.809 0 0 0 1.763 2.148 4.773 4.773 0 0 0 2.651.807H48.5L58.752 5.682l.877-2.045V.855h-9.302v4.827z" fill="#4D3490"/></svg>