<svg width="110" height="48" fill="none" xmlns="http://www.w3.org/2000/svg"><path fill-rule="evenodd" clip-rule="evenodd" d="M5.755 7.85h34.858a4.229 4.229 0 0 1 4.216 4.216V36.46a4.229 4.229 0 0 1-4.216 4.216H4.742A4.229 4.229 0 0 1 .525 36.46V6.327c0-1.097.905-1.856 1.992-1.991L34.66.234c1.097 0 1.992.894 1.992 1.991v3.41H3.742c0 1.43.427 2.215 2.007 2.215h.005zm19.548 26.727c-2.933.561-6.702-.416-8.75-2.62-.925-.993.567-2.496 1.497-1.492 1.378 1.486 3.837 2.178 5.844 2.131 2.558-.057 4.83-2.381 3.379-4.98-2.012-3.598-6.961-2.59-9.509-5.417-2.058-2.283-1.08-5.87 1.337-7.455 2.52-1.659 6.872-1.596 8.947.785.894 1.018-.603 2.521-1.498 1.492-1.674-1.919-5.63-1.659-7.143.317-2.147 2.823 1.066 4.34 3.312 5.022 3.088.936 6.514 2.646 7.075 6.186.447 2.85-1.757 5.506-4.491 6.03z" fill="#EE4E2C"/><path fill-rule="evenodd" clip-rule="evenodd" d="M25.303 34.577c-2.932.561-6.701-.416-8.75-2.62-.925-.993.567-2.496 1.497-1.492 1.378 1.486 3.837 2.178 5.844 2.131 2.558-.057 4.83-2.381 3.379-4.98-2.007-3.598-6.961-2.59-9.508-5.412-2.06-2.282-1.082-5.87 1.336-7.46 2.521-1.659 6.872-1.596 8.947.784.894 1.02-.603 2.522-1.498 1.493-1.674-1.919-5.63-1.659-7.137.317-2.148 2.823 1.065 4.34 3.311 5.022 3.088.936 6.514 2.646 7.076 6.186.447 2.85-1.758 5.506-4.492 6.03h-.005z" fill="#FEFEFE"/><path d="M85.337 6.353c-1.248 0-2.365.53-3.135 1.367v-.972c0-.879-1.414-.884-1.414 0v11.51c0 .884 1.414.884 1.414 0v-5.126a4.241 4.241 0 0 0 3.135 1.362c2.313 0 4.195-1.825 4.195-4.07 0-2.246-1.882-4.071-4.195-4.071zm0 6.67c-1.481 0-2.683-1.17-2.683-2.6 0-1.289.973-2.365 2.252-2.568.005 0 .015-.005.02-.005a2.69 2.69 0 0 1 2.864 1.534c.147.317.225.67.225 1.034 0 1.435-1.201 2.6-2.678 2.6v.005zM74.92 14.494c-2.314 0-4.196-1.825-4.196-4.07 0-2.246 1.882-4.071 4.196-4.071 2.313 0 4.195 1.825 4.195 4.07 0 2.246-1.882 4.071-4.195 4.071zm0-6.67c-1.477 0-2.683 1.165-2.683 2.6 0 1.434 1.201 2.599 2.683 2.599 1.476 0 2.682-1.165 2.682-2.6 0-1.434-1.2-2.599-2.682-2.599zm33.729 2.521c-.036-1.871-1.024-3.56-3.067-3.935-1.762-.322-3.821.577-4.575 2.178-.78 1.664-.452 3.946 1.087 5.105 1.663 1.253 4.257.869 5.968-.062.795-.431.083-1.612-.712-1.185-1.082.587-2.496.878-3.707.483-.905-.291-1.414-1.05-1.57-1.903h5.874c.375 0 .713-.317.707-.686l-.005.005zm-6.529-.686a1.26 1.26 0 0 1 .041-.15c.338-1.118 1.492-1.763 2.662-1.794 1.346-.037 2.1.863 2.334 1.944h-5.037zm-2.875.697c-.037-1.872-1.024-3.561-3.067-3.936-1.763-.322-3.822.577-4.575 2.179-.78 1.663-.453 3.945 1.086 5.105 1.664 1.253 4.258.868 5.968-.063.796-.431.084-1.611-.712-1.185-1.081.588-2.495.879-3.707.484-.904-.292-1.414-1.05-1.57-1.903h5.875c.374 0 .712-.317.707-.686l-.005.005zm-6.53-.686c.01-.052.026-.104.042-.151.338-1.118 1.492-1.763 2.662-1.794 1.346-.036 2.1.863 2.334 1.945h-5.038zM69.06 9.035v4.757c0 .9-1.414.9-1.414 0V9.13c-.047-.92-.837-1.347-.863-1.357-1.004-.437-2.834-.234-3.92 1.144v4.876c0 .9-1.414.9-1.414 0V1.575c0-.894 1.414-.894 1.414 0v5.49c1.731-1.154 3.935-1.024 4.97-.317 0 0 1.242.68 1.222 2.293l.005-.006zm-9.92-6.898c-1.382-1.529-4.288-1.565-5.973-.5-1.611 1.02-2.266 3.328-.894 4.789 1.7 1.814 5.006 1.17 6.353 3.472.972 1.67-.551 3.161-2.256 3.197-1.336.026-2.98-.415-3.905-1.372-.618-.64-1.616.322-.998.962 1.367 1.414 3.889 2.043 5.844 1.679 1.824-.338 3.3-2.043 3-3.873-.375-2.272-2.662-3.369-4.726-3.972-1.503-.437-3.65-1.414-2.21-3.223 1.009-1.269 3.65-1.44 4.767-.203.598.66 1.596-.301.999-.962v.006z" fill="#EE4E2C"/><path fill-rule="evenodd" clip-rule="evenodd" d="M95.969 47.766h-4.486l4.798-9.072-7.881-14.89h4.866l5.448 10.29 5.448-10.29h4.487l-12.68 23.962zM51.275 40.67h3.76v-6.873h5.068c5.256 0 9.519-3.686 9.519-8.235 0-4.549-4.263-8.235-9.52-8.235h-8.827V40.67zm3.76-10.632v-8.952h5.068c2.854 0 5.173 2.001 5.173 4.476 0 2.47-2.314 4.476-5.173 4.476h-5.069zM83.7 23.956H87v16.568h-3.3v-1.861a8.393 8.393 0 0 1-5.459 2.007 8.431 8.431 0 0 1-8.432-8.433 8.431 8.431 0 0 1 8.432-8.432c2.085 0 3.988.754 5.459 2.006v-1.86.005zm-5.46 3.404a4.877 4.877 0 1 1 0 9.753 4.877 4.877 0 0 1 0-9.753z" fill="#EE4E2C"/></svg>